<mxfile host="app.diagrams.net" agent="Mozilla/5.0 (Windows NT 10.0; Win64; x64) AppleWebKit/537.36 (KHTML, like Gecko) Chrome/140.0.0.0 Safari/537.36 Edg/140.0.0.0" version="28.2.5">
  <diagram name="Page-1" id="2gICW3ly7sqzl5wP6NTt">
    <mxGraphModel dx="2190" dy="1420" grid="1" gridSize="5" guides="1" tooltips="1" connect="1" arrows="1" fold="1" page="0" pageScale="1" pageWidth="827" pageHeight="1169" math="0" shadow="0">
      <root>
        <mxCell id="0" />
        <mxCell id="1" parent="0" />
        <mxCell id="4V2U_Qw4gVRa_boo78sr-101" value="GehÃ¤use/Korpus" style="rounded=0;whiteSpace=wrap;html=1;fillColor=none;dashed=1;dashPattern=1 1;fontFamily=Fira Sans;fontSource=https%3A%2F%2Ffonts.googleapis.com%2Fcss%3Ffamily%3DFira%2BSans;labelPosition=center;verticalLabelPosition=top;align=left;verticalAlign=bottom;fontSize=20;" parent="1" vertex="1">
          <mxGeometry x="-50" y="-45" width="835" height="540" as="geometry" />
        </mxCell>
        <mxCell id="4V2U_Qw4gVRa_boo78sr-17" value="" style="group" parent="1" vertex="1" connectable="0">
          <mxGeometry x="825" y="-17" width="185" height="60" as="geometry" />
        </mxCell>
        <mxCell id="4V2U_Qw4gVRa_boo78sr-13" value="Schaltnetzteil" style="rounded=0;whiteSpace=wrap;html=1;fontFamily=Fira Sans Medium;fontSource=https%3A%2F%2Ffonts.googleapis.com%2Fcss%3Ffamily%3DFira%2BSans%2BMedium;fontSize=14;verticalAlign=top;" parent="4V2U_Qw4gVRa_boo78sr-17" vertex="1">
          <mxGeometry width="185" height="60" as="geometry" />
        </mxCell>
        <mxCell id="4V2U_Qw4gVRa_boo78sr-15" value="24V oder 12V DC" style="rounded=0;whiteSpace=wrap;html=1;fontFamily=Fira Sans;fontSource=https%3A%2F%2Ffonts.googleapis.com%2Fcss%3Ffamily%3DFira%2BSans;fontSize=9;horizontal=1;fillColor=#bac8d3;strokeColor=#23445d;rotation=0;" parent="4V2U_Qw4gVRa_boo78sr-17" vertex="1">
          <mxGeometry y="35" width="75" height="14" as="geometry" />
        </mxCell>
        <mxCell id="4V2U_Qw4gVRa_boo78sr-16" value="230V AC" style="rounded=0;whiteSpace=wrap;html=1;fontFamily=Fira Sans;fontSource=https%3A%2F%2Ffonts.googleapis.com%2Fcss%3Ffamily%3DFira%2BSans;fontSize=9;horizontal=1;fillColor=#bac8d3;strokeColor=#23445d;rotation=0;" parent="4V2U_Qw4gVRa_boo78sr-17" vertex="1">
          <mxGeometry x="120" y="35" width="65" height="14" as="geometry" />
        </mxCell>
        <mxCell id="4V2U_Qw4gVRa_boo78sr-25" value="" style="group;fontFamily=Fira Sans;fontSource=https%3A%2F%2Ffonts.googleapis.com%2Fcss%3Ffamily%3DFira%2BSans;" parent="1" vertex="1" connectable="0">
          <mxGeometry x="1145" y="320" width="180" height="140.25" as="geometry" />
        </mxCell>
        <mxCell id="4V2U_Qw4gVRa_boo78sr-20" value="PC mit DAW" style="rounded=0;whiteSpace=wrap;fontFamily=Fira Sans Medium;fontSource=https%3A%2F%2Ffonts.googleapis.com%2Fcss%3Ffamily%3DFira%2BSans%2BMedium;fontSize=14;verticalAlign=top;convertToSvg=1;" parent="4V2U_Qw4gVRa_boo78sr-25" vertex="1">
          <mxGeometry width="180" height="140.25" as="geometry" />
        </mxCell>
        <mxCell id="4V2U_Qw4gVRa_boo78sr-18" value="" style="shape=image;verticalLabelPosition=bottom;labelBackgroundColor=default;verticalAlign=top;aspect=fixed;imageAspect=0;image=data:image/png,iVBORw0KGgoAAAANSUhEUgAAASUAAADxCAYAAACNv6H6AAAABHNCSVQICAgIfAhkiAAAFQxJREFUeF7tneGaY7kJRJ18ef9XTvZm1r1ujCSQACFU+WddCYoDKt/umdm8XvgfCIAACIAACIAACIAACIAACIAACIAACIAACIAACIAACIAACIAACIAACIAACIAACIAACIAACIAACIAACIAACIAACIAACIAACIAACLz+BQYqAv/92A12KnTYDAIyAv+WbcMuEAABEIghgG97OefPtyT5qfZOsG+zwZOLCeBiyJtvbUo0M3pBieDzlQRwEeRt9zYluRJ+J3rJc8HqHAHJvLvMnEvQOQbpT1n9klvS7PQwINCEQKb7tzqXZrWYBTJpUe4gVqb0WeXqIOQmBnWrBKzuZ+ScLWteDrBK/ZDztKlZuFFdh+CEzMMIPPNOv5R7s7d0P5YOHwZ2RS5tALit0MRZOk/ZiND5pnrfz+k6rYPGoc/Zz/9hV7GYjQD9lsqmD3p0BHqXdXTRdZm+d/dyf+/ur3zG4nS/11Q5YUp96M9TClsFeBweO0DgF4Hr5wt/oxs3AgRAQEOgZZrPeuuZJv4LptTHRd+S+rvxFATqEdDegWVjginphmgZuC4ddoPA8QTUdwam1O659huiHQlPQAAExARgSmJUNj8vy9P97IQ5TkDDERcC6reeGRUwpRlqOAMCINAisPwlClNqof29HvINIZCSRYdAKraAwBwBmNIcN5wCARBwIgBTcgKLsCBQgMDqj2JTb/YwpQKTgxJAoBIB/DOTSt3U1bLyLTj1DaiTh90HEliZqZ9yYUp8503g8qFVq1l0UNFaXTAxSvC8z2E9hCmdNxwnKtaa2FNj2CU4EWiA5pmemciCKZlgPD6IxACih1STT6L/+CYdVsB0T2BK405Pwx2H7u6gl9Jahzaedj/V3y128eFnLq3OxdRXHA9lClP6nqnIy/Sdvc7K7CCv8l89b9mBWQaWGo6LBVM6o2U3Dbe01kzm05oijUZp3a1cZdZhSv1WYlD6fHY+/eyN5vLv1NzLbVFDiXmFKfXGBM9OIZDpMlqYyyncXXTClFywIujFBLQGmdHEtmqCKeW8PVuHIieSsqq0JlYWxLswmFL5FqcoMMpkccFTtHtNBExpjR9O/yYQZT4t7jQ/TKpFSr4ezhCmlOtScaMSPhREBL3onMasa1m07+5h1v6wumBK/2DJMsBsowIWI+r3upwR2lda0NLnxWNF6/azMKXtLfgS0Brgr42TC97x37IiL9xnrqj6JvH/OuatNbIHZrXAlNqjFdnQtgqbJ1YDcwKTTBqtuNtMwSFRYEp8o7IM9i4du/Ly3Th3leOY3ai264MpnTvwFsq5S2MRFzHaBG5gvlQjTKk9PJWeLA1JJRCoJT8B/B8H5O8RFILALgJbvsxgSrvajbwgAAIsAZgSiwWLIAACuwjAlP6Q3/4nDrsGAHlBwICA6f2BKRl0BCFA4GICpob0cIQp5Zom8wbnKg9qQGBMAH8l4JvRlj9x+JaBFRA4joDJ3YEpvV5Z3k6y6LC6Cd71mFwAq2IvjOPWX5hS3mmavXRuw5IMFVfnLLNkpd0tB6b0u/8Y6rPvA2dUKxVhHlboTZ6FKU2Ccz5W6TJY1mJtOqM20nyWtdDcNBd9Lv3sqbGlwTQnTKmF+dx10wFJhoGrzeoyS0qNzCXRw+1paeTYcecla60ckrPDPTClISJsSE7A8rK9S3W9dMl5bpcHU9reAghISIAaXbRJ0fwSRFEa3fPAlCTtxp7bCcyYRDQzC40zhmOR9xer2/9G90wToocN+UDgKgK3m9JVzUaxIKAgIHkDkuxRpPyzFaakRoYDIFCSQJqfGvA7pX/my8X1E4+vxRDexixxO+tIu9mULC7lzknIoH9FAwxt5/T8zi3to3TfUmU3m9ISOBxeJjAz4DCyZeyiAFs5w5T+9GhrE0Rj4rtJW/+MoVhUwOXVarfQcWMMjr0LB5iSC9aQoDsv40pu6+FuxVvRGNLAJEkoPyk36T51mbeaEm2EGhwOTBPQDvNsrzTntJqmiy9y0JXXraZUZDauKKN1ATSmMwJFY7VyjuKc9lxaN93nWidMyRUvgjsSaBmHxQWyiOFY+qtVu2fOsNgwpVftBodNUp5E0gub3XiyEA3nBFPK0nroiCZAzSv88kUXTPLReimPljzpvtb54TpMaYgoZAMdkJCkSPKLgPtlK8A7hBH+7VuBSUEJIFCJAEwpXzdDvo3ylQ1FGwm0Zm7LG/yNprQF9MaBQ2oQmCGw7Z7caEozDcIZEKhEYJvhSCDebkqt11YJO6s9qQfEqkjEOZ5A2F253ZSOnxQUAAJKAjNfgmGG9NQCU1J2FNtBoBiBUMORsLvNlGa+JSQcrfakGxCrwhAnJYGU83abKaWcDIgCARD4h8DNppTyWwLDCQKOBKQ/KUj3uUi9yZS2gnbpHoKCQEECN5lSwfahJBAQE5j9Ug7/ieJWUwoHLR4dbASBGAKtOzBrXmaqbzUlM4AIBAIHEmgZUopS8J8uSdGGFCK2f0P+RSH1ZUnRpQtEwJTqNzmD2Ugpv7XCnKTEfPdt6QNMybepo+iWhmEZa6Tb+7mkli0XxrtwxH+9bjElyZBnnodI/dGXfbY2ei5ad+Z5OVrbLaaUpUn0IlFdo+d0v/Zzxov71rRae+t8xpq1fVvd32KzGtfl/A2mRBtyw5CeWKNUM+3n6GL09ktzjnLguSGBG0zJENf2ULhE339C1zOdUcOkZ2/hLuUx4rr0vDpsCjlTvZm1LQ1VksOU76qsTLOjqYVy6NWh2avRoNqLNyUVLrfNvUFxS1o8cI8pvXwSFDNnJHGj9zx19NhE6/nKB1P6QoKFCwhILmUVE5ptp4TRbOzuucr/zIQO1TbI3Q7gYVYCz7xgZjZ0B29KG6Aj5VEETjemzy/nI2qp/Kb0OfnZmkHf4o66pRALAp4EbjElT4aIDQIVCKT5ooQpVRgn1AAChQhUNaU0ri+YlWw/WgokYwsI+BGoakp+xNYjn2SY69UiwokEtn5RwpROHBloBgEZgSO/ACuaEm3EVtcfzE5mbQPpeAwCPgQqmpIPKUQFARAIIQBTCsH8k4S+xcVmR7abCNBZO+atvLopHdOIm24LagWBHoFqpkS/HXq14xkI3ELgqC/nSqZ0miEdNSi33F7UuZ9AJVPaT7Ov4DTT7FeDpyDgRKDqfyUAbyFOA4OwIOBNAG9K3oQRHwRAQEUApqTCZbYZb3JmKBGoGoEqpoTf11SbTNSzQkB7H7T7V7QNz1YxpWGh2AACIHAGgQqmlMrlG20/QWNDOpZBIJZABVOixPD7GkoEn28moL0P2v3mbCuakjmkxYB4S1oEiOMqAsfPW7W/p8S5fK9J3H7VBExs3pFzQiaOgMAeAtVMSUuxZ1jSWDAZKSnsiyZw5GxWMKXd4EfGtltf9EVAPhBYIlDBlN4APs3h0wioKYxMZAkoczg6HyMh5RLtS0qREBVPoJIpSelZXQaYjZQ4v8+an1VfebV1V637sEzqRlNahvZ3gNElSNdsq8KTxsnIezQjligz1j9VH0xpCpvoUORAigQl2VTm8gh4tmrNOhspdFUwpVbjBTODLRsIWA/+if230mzNcsM4fKesYErfVWHlJgLZLqaV4Uh62MqVjYmklp89p5tSqykqCNgMAoYEWoaQYVY/NbR0GqKYC3WyKXFNTgt6rj04VYiA1Wxyc18I0+t1sinRRlg1ncbFZxDIREA758eZ2Kn/IPc40JmmGlquITC6J6PnW0CdaEocSO23xxbYSAoCIDAmcKIpjavCDhAAAUpg9MU9ek7juX0+7XdK9C0pDUi3Du0JTDnvUSHLihngOZ3Uw18VnGRKUZBpnupDT+vlRzzv6qf+6r2y7kJKXieZknVDuHgeF9QjJqcda6/XLtbZLjflkE1fd1ZPMaUTIVPN3UYkfZh5mDPx1WjJzDTFGJ5gSpqGr0Dl8rQGiNu7kjvL2Va9WfR96vjUelI/PrV68D6JBTtXJ5gSFe7RSJrj+eyRxyMmp/22tR1cT7n8O9gszV92U4pqvHee4wZjaaruOKzpqfd8lSKe3ZQobM0g0LOaz6M8o+eaXNhbn0DUvFDzi8pr2sHMf3mSAjYt/CNYVB4v/YgLAg+BMnN80puSh+tzjfTIg2tzLwE6Y5ivwSxkflMaSF9+TIdlOSACgEAiAiPzSzv/Wd+UKLARYKtZiMpjpRdxQOAhsHJfPs+mmP+Mb0oUsMfYcTlSNMSjWMTcSsB7rrhZlha8claaQ70voympi1Ae4BrhPThKidgOAi4EjpjzbD++UcM4AqLL+CAoCMwRGN2Z93N61+ayOZzKZEoRkGiOUQMdkCMkCJgRsJznNHfhph/faAPNJgOBQKBDIOPcZdT0gzCLKXGQ0jh3Z+DwCAR2EeDujEQLdy7VXcv049snUGtItBHW8SXDgD0gYDV3dJ4fslaxt3cpw5sSB3g7GAgAgYMIrBjSylkXRBlMiRZmDQmmRwnjcxQBj9lbiUnPWt81E667TYlCMilqECRlIwaa8fg8AlGzLZ3nKD3LndppShwkKWBp4VwO6VnsA4FsBK6Y552mRBtubUg0/vM5IgeXF2sg4DF7KzFXzrp2M5MpWRd6xbeKNTTEcyGw2wDoXditpwt5lyntgJS6Ed0u4SEIfBOQzjO9a9+Rkq3s+HtK3pC84ydrIeQkJIAZXGjKrjelT8lSx18oE79LWoGHsyoCXoY0E5c7E3HfVMDo5sg3JQ4Q1YPPIAACNgS4+5bekJ7SI02JQ20J6dgmcGCwVoaA5YyXgdIrJMqUOMPo6cIzEKhAwMuQtHG1+7eyjzAlzpCsIUXk2NooJD+CADeHFsK94lpoM4/hbUoRMLkc1qZnDn4xIFfzTMjqnGaYZDsz0+uZM2nq9jYlWiguASWy9/OO4a06A1Esq/L7uQmephTRJC5H9aZxNe+1Nl12rf5T+7lLt5avrnsBu71MiQMT0aSIHAFtaaaw4MrFaCbEAxGBKKYz8z1zRlS01yYPU+Ia5AGGy+PFKUNcrt4ZrjNnLOrn9FvEzRjDivFNzH766GFKdEisGkTj0s9ReWjeiM8VhrPXH1pfb28Eb00Oql1ztrd3Ji49cxLHHxYZ/plJrzGtZxR+a1/l9SMHjmlItV7u6ksZjpZvShyUqAZF5WHu1JalyvWeVBs3814DcRKXJQaWprQkRHE4chAUssK2PsMpZXDNIIfR7yey4k37OxN35ky/uqCnVqZEIT7yo6BE5QlqiWkari9WCSy4U30WMa3qG8Wh2kf7I5+fxPGLi4Upcc3xgkJzjfLQ/V8ANi+M9L/lSfdFlpOdbSSLJ5dVj2a4zpyJ5iPOZ2FK4mRBG09q0FurdqB7+0+qP2gkzNNQxr1+rCb3jL2qzeX8qinR5jwir4No0BmO4zuslqd2v0Z+T6cmDrfXUzeXb3bNk8GsplLnVkyJa07kYGlyafZ6N5jj1svZ2x9dV3S+Hpcbnkl40/mQnEnNbtaUKIioIiXAJXui9HJ53vosGFrEoBpX+Hnoofp6n1e09+L2nlnm3M2vV2fYs1lTogItG0NjV/08YrZrQHfltegz1T5ivJrTO/5IH613tP+I5zOmVBJEwm61Bh785c0asWoxbmUYxWudi1rX1hOlS5VHa0pcU0qAUFHbu9mLN9fb2Uq9NHJ6VnTTsz3ddC+nZWWNxu9pWcmT/qzGlCi09MVBoIrAqZeA6l6ZU3qWxlYBdd58klYVCo0pcYEzN43Ti7X6BCQzSS/0DBVJnpm4zxnP2LOaws5JTKnVwKvBhXUIiTwI0NltzXgrNz3f2ue1TvXu1mNap8SUuISlIHAFYu0qAifNMzWkco2aNaVyIFAQCDQIRJhARI5GefmWtaZ00jdKPtpQBAJrBDjzKncnJab0LvoBwkHRYC4HUFM89oLAAgHu7pW8TxJTWuD4dZSCLQn1q2osnEwgekaj86XrjRQANZOdhUg179SI3CAgJUDvFjffdM8Tm9snzZl638yb0gwMDuosGC7WjKbZ/DgHArsJlJ73GVN6TEEL5XM/ZyqrTR7F1Opd1YPzIGBFYDTbVnnSxJkxpVXxMwax2pjW+Rktq/XjPAi0CEjmUbKnFf+I9VlTmnlbWgHSakTLbKS5JOdbuaU5sA8EZglI5nM2dtpzUlN6LmZGQCPDsND8GWOUL22jIawEgSvmT2pKXEej35Y4DaO1VhNnzap1rpVnpA/PQQAECAGNKWV9W5ppqsREWgbE5eP2SnJwsbAGAhyBa+ZJY0ocqBPeljjdkrX3EHCGIzmvOXfNwEnAYc//CWjmpxSymcvgBWtGy+5meLF413Uik909OS3/5wx99pvO1jWzMFMohZVlCGZq8dCelY9HrVzMLH3gtGVbo7PyZtdaz6bfRc/sAFFoLuIWgs7WtZBy6mh2jlNFMYdO6Qcj3XWJ9v/hRNceAVfxy1As1wTXSWgEz8DiLS0LkwYqt+VMPXAr8iMw7TNMqYAD06Z6DtJtF0bL0rIXt7AeMbuFw69Zq1b0qMnaiybdX42jtO7evshenMp/xOjUunpzMXx2ZdEfVEZDMQSo2HA76x4qrz5kZz6qO7v+Xk+nn11ZtJLWaHCU4djt6MMfLBGs2Qb8tRjdg16t0VpaTLasX128AfHeYBmE/wmBPn3TjGL/zmzdg55+61zf9BKvXF18UF96w2clAX38TTKCuVXvuDhX9/Pq4rlpCFyLvDjoc7uxkX1oq/jnyfW9uh6AZEo27dlxWTAPv5sd3QPw/4s/IGxyHIO0nhcGc2HQoL9DfPbp4drrG7jDlOwmL2mk3gVYlYwLJCNITel9iusNmMKUZFNVfBd3OWZKxoXiqXGmxDEHv7/5AQQ/SDeuchfFi8Mtc0eZvuturXvxPiru6n/k7ahiIbZLQGoU9EJ1gzYetmJINTTCplpu1ZhKZEYxlYYgI98bNEVdvtNmlePy1EDXT6vLfabxpuSOuHwC6aWil1ELpndeqkGb02p/dn1WdZrEASwTjAiySKBnOIuh2ePec0/reedrrbMib13Em9Ktnc9Vd88k6EW2UE5j9vJb5EMMBQGYkgIWtm4h0DIMaiwr4jSxWnre+TWxVjSXPTsCXLZwFHYlgZ2GgbsmHDmAEoLCtpIEIk0Kd004QgAlBIVt1xNYNTDctetHCABAAARAAARAAARAAARAAARAAARAAARAAARAAARAAARAAARAAARAIJrA/wAE+uet9DEs4AAAAABJRU5ErkJggg==;" parent="4V2U_Qw4gVRa_boo78sr-25" vertex="1">
          <mxGeometry x="40.642903225806464" y="23" width="132.52" height="109" as="geometry" />
        </mxCell>
        <mxCell id="4V2U_Qw4gVRa_boo78sr-29" value="USB-C" style="rounded=0;whiteSpace=wrap;html=1;fontFamily=Fira Sans;fontSource=https%3A%2F%2Ffonts.googleapis.com%2Fcss%3Ffamily%3DFira%2BSans;fontSize=9;horizontal=1;fillColor=#fad9d5;strokeColor=#ae4132;" parent="4V2U_Qw4gVRa_boo78sr-25" vertex="1">
          <mxGeometry y="70" width="40.645161290322584" height="15" as="geometry" />
        </mxCell>
        <mxCell id="4V2U_Qw4gVRa_boo78sr-28" value="" style="group" parent="1" vertex="1" connectable="0">
          <mxGeometry x="890" y="355" width="185" height="60" as="geometry" />
        </mxCell>
        <mxCell id="4V2U_Qw4gVRa_boo78sr-23" value="USB-to-Milan Dongle" style="rounded=0;whiteSpace=wrap;html=1;fontFamily=Fira Sans Medium;fontSource=https%3A%2F%2Ffonts.googleapis.com%2Fcss%3Ffamily%3DFira%2BSans%2BMedium;fontSize=14;verticalAlign=top;" parent="4V2U_Qw4gVRa_boo78sr-28" vertex="1">
          <mxGeometry width="185" height="60" as="geometry" />
        </mxCell>
        <mxCell id="4V2U_Qw4gVRa_boo78sr-26" value="RJ45" style="rounded=0;whiteSpace=wrap;html=1;fontFamily=Fira Sans;fontSource=https%3A%2F%2Ffonts.googleapis.com%2Fcss%3Ffamily%3DFira%2BSans;fontSize=9;horizontal=1;fillColor=#d0cee2;strokeColor=#56517e;" parent="4V2U_Qw4gVRa_boo78sr-28" vertex="1">
          <mxGeometry y="35" width="25" height="15" as="geometry" />
        </mxCell>
        <mxCell id="4V2U_Qw4gVRa_boo78sr-27" value="USB-C" style="rounded=0;whiteSpace=wrap;html=1;fontFamily=Fira Sans;fontSource=https%3A%2F%2Ffonts.googleapis.com%2Fcss%3Ffamily%3DFira%2BSans;fontSize=9;horizontal=1;fillColor=#fad9d5;strokeColor=#ae4132;" parent="4V2U_Qw4gVRa_boo78sr-28" vertex="1">
          <mxGeometry x="150" y="35" width="35" height="15" as="geometry" />
        </mxCell>
        <mxCell id="4V2U_Qw4gVRa_boo78sr-42" value="" style="group;fontFamily=Fira Sans;fontSource=https%3A%2F%2Ffonts.googleapis.com%2Fcss%3Ffamily%3DFira%2BSans;" parent="1" vertex="1" connectable="0">
          <mxGeometry x="810" y="245" width="275" height="60" as="geometry" />
        </mxCell>
        <mxCell id="4V2U_Qw4gVRa_boo78sr-31" value="Switch???" style="rounded=0;whiteSpace=wrap;html=1;fontFamily=Fira Sans Medium;fontSource=https%3A%2F%2Ffonts.googleapis.com%2Fcss%3Ffamily%3DFira%2BSans%2BMedium;fontSize=14;verticalAlign=top;" parent="4V2U_Qw4gVRa_boo78sr-42" vertex="1">
          <mxGeometry width="275" height="60" as="geometry" />
        </mxCell>
        <mxCell id="4V2U_Qw4gVRa_boo78sr-32" value="RJ45" style="rounded=0;whiteSpace=wrap;html=1;fontFamily=Fira Sans;fontSource=https%3A%2F%2Ffonts.googleapis.com%2Fcss%3Ffamily%3DFira%2BSans;fontSize=9;horizontal=1;fillColor=#d0cee2;strokeColor=#56517e;" parent="4V2U_Qw4gVRa_boo78sr-42" vertex="1">
          <mxGeometry x="10" y="45" width="25" height="15" as="geometry" />
        </mxCell>
        <mxCell id="4V2U_Qw4gVRa_boo78sr-34" value="RJ45" style="rounded=0;whiteSpace=wrap;html=1;fontFamily=Fira Sans;fontSource=https%3A%2F%2Ffonts.googleapis.com%2Fcss%3Ffamily%3DFira%2BSans;fontSize=9;horizontal=1;fillColor=#d0cee2;strokeColor=#56517e;" parent="4V2U_Qw4gVRa_boo78sr-42" vertex="1">
          <mxGeometry x="35" y="45" width="25" height="15" as="geometry" />
        </mxCell>
        <mxCell id="4V2U_Qw4gVRa_boo78sr-35" value="RJ45" style="rounded=0;whiteSpace=wrap;html=1;fontFamily=Fira Sans;fontSource=https%3A%2F%2Ffonts.googleapis.com%2Fcss%3Ffamily%3DFira%2BSans;fontSize=9;horizontal=1;fillColor=#d0cee2;strokeColor=#56517e;" parent="4V2U_Qw4gVRa_boo78sr-42" vertex="1">
          <mxGeometry x="60" y="45" width="25" height="15" as="geometry" />
        </mxCell>
        <mxCell id="4V2U_Qw4gVRa_boo78sr-36" value="RJ45" style="rounded=0;whiteSpace=wrap;html=1;fontFamily=Fira Sans;fontSource=https%3A%2F%2Ffonts.googleapis.com%2Fcss%3Ffamily%3DFira%2BSans;fontSize=9;horizontal=1;fillColor=#d0cee2;strokeColor=#56517e;" parent="4V2U_Qw4gVRa_boo78sr-42" vertex="1">
          <mxGeometry x="85" y="45" width="25" height="15" as="geometry" />
        </mxCell>
        <mxCell id="4V2U_Qw4gVRa_boo78sr-37" value="RJ45" style="rounded=0;whiteSpace=wrap;html=1;fontFamily=Fira Sans;fontSource=https%3A%2F%2Ffonts.googleapis.com%2Fcss%3Ffamily%3DFira%2BSans;fontSize=9;horizontal=1;fillColor=#d0cee2;strokeColor=#56517e;" parent="4V2U_Qw4gVRa_boo78sr-42" vertex="1">
          <mxGeometry x="110" y="45" width="25" height="15" as="geometry" />
        </mxCell>
        <mxCell id="4V2U_Qw4gVRa_boo78sr-38" value="RJ45" style="rounded=0;whiteSpace=wrap;html=1;fontFamily=Fira Sans;fontSource=https%3A%2F%2Ffonts.googleapis.com%2Fcss%3Ffamily%3DFira%2BSans;fontSize=9;horizontal=1;fillColor=#d0cee2;strokeColor=#56517e;" parent="4V2U_Qw4gVRa_boo78sr-42" vertex="1">
          <mxGeometry x="135" y="45" width="25" height="15" as="geometry" />
        </mxCell>
        <mxCell id="4V2U_Qw4gVRa_boo78sr-39" value="RJ45" style="rounded=0;whiteSpace=wrap;html=1;fontFamily=Fira Sans;fontSource=https%3A%2F%2Ffonts.googleapis.com%2Fcss%3Ffamily%3DFira%2BSans;fontSize=9;horizontal=1;fillColor=#d0cee2;strokeColor=#56517e;" parent="4V2U_Qw4gVRa_boo78sr-42" vertex="1">
          <mxGeometry x="160" y="45" width="25" height="15" as="geometry" />
        </mxCell>
        <mxCell id="4V2U_Qw4gVRa_boo78sr-40" value="RJ45" style="rounded=0;whiteSpace=wrap;html=1;fontFamily=Fira Sans;fontSource=https%3A%2F%2Ffonts.googleapis.com%2Fcss%3Ffamily%3DFira%2BSans;fontSize=9;horizontal=1;fillColor=#d0cee2;strokeColor=#56517e;" parent="4V2U_Qw4gVRa_boo78sr-42" vertex="1">
          <mxGeometry x="185" y="45" width="25" height="15" as="geometry" />
        </mxCell>
        <mxCell id="4V2U_Qw4gVRa_boo78sr-41" value="Power IN" style="rounded=0;whiteSpace=wrap;html=1;fontFamily=Fira Sans;fontSource=https%3A%2F%2Ffonts.googleapis.com%2Fcss%3Ffamily%3DFira%2BSans;fontSize=9;horizontal=1;fillColor=#bac8d3;strokeColor=#23445d;rotation=0;" parent="4V2U_Qw4gVRa_boo78sr-42" vertex="1">
          <mxGeometry x="215" y="46" width="50" height="14" as="geometry" />
        </mxCell>
        <mxCell id="4V2U_Qw4gVRa_boo78sr-43" style="edgeStyle=elbowEdgeStyle;rounded=0;orthogonalLoop=1;jettySize=auto;html=1;entryX=0.5;entryY=1;entryDx=0;entryDy=0;endArrow=none;endFill=0;flowAnimation=0;" parent="1" source="4V2U_Qw4gVRa_boo78sr-3" target="4V2U_Qw4gVRa_boo78sr-32" edge="1">
          <mxGeometry relative="1" as="geometry">
            <Array as="points">
              <mxPoint x="833" y="325" />
            </Array>
          </mxGeometry>
        </mxCell>
        <mxCell id="4V2U_Qw4gVRa_boo78sr-44" style="edgeStyle=elbowEdgeStyle;rounded=0;orthogonalLoop=1;jettySize=auto;html=1;entryX=0.5;entryY=1;entryDx=0;entryDy=0;endArrow=none;endFill=0;flowAnimation=0;exitX=0;exitY=0.5;exitDx=0;exitDy=0;" parent="1" source="4V2U_Qw4gVRa_boo78sr-26" target="4V2U_Qw4gVRa_boo78sr-34" edge="1">
          <mxGeometry relative="1" as="geometry">
            <mxPoint x="815" y="433" as="sourcePoint" />
            <mxPoint x="898" y="310" as="targetPoint" />
            <Array as="points">
              <mxPoint x="858" y="355" />
            </Array>
          </mxGeometry>
        </mxCell>
        <mxCell id="4V2U_Qw4gVRa_boo78sr-45" style="edgeStyle=elbowEdgeStyle;rounded=0;orthogonalLoop=1;jettySize=auto;html=1;endArrow=none;endFill=0;flowAnimation=0;entryX=1;entryY=0.5;entryDx=0;entryDy=0;exitX=0;exitY=0.5;exitDx=0;exitDy=0;" parent="1" source="4V2U_Qw4gVRa_boo78sr-29" target="4V2U_Qw4gVRa_boo78sr-27" edge="1">
          <mxGeometry relative="1" as="geometry">
            <mxPoint x="982" y="483" as="sourcePoint" />
            <mxPoint x="1105" y="340" as="targetPoint" />
            <Array as="points">
              <mxPoint x="1110" y="393" />
            </Array>
          </mxGeometry>
        </mxCell>
        <mxCell id="4V2U_Qw4gVRa_boo78sr-47" value="PCB (Eigendesign)" style="rounded=0;whiteSpace=wrap;html=1;fontFamily=Fira Sans Medium;fontSource=https%3A%2F%2Ffonts.googleapis.com%2Fcss%3Ffamily%3DFira%2BSans%2BMedium;fontSize=14;verticalAlign=top;" parent="1" vertex="1">
          <mxGeometry x="340" y="-25" width="245" height="225" as="geometry" />
        </mxCell>
        <mxCell id="4V2U_Qw4gVRa_boo78sr-48" value="24V oder 12V DC" style="rounded=0;whiteSpace=wrap;html=1;fontFamily=Fira Sans;fontSource=https%3A%2F%2Ffonts.googleapis.com%2Fcss%3Ffamily%3DFira%2BSans;fontSize=9;horizontal=1;fillColor=#bac8d3;strokeColor=#23445d;rotation=0;" parent="1" vertex="1">
          <mxGeometry x="509.71" y="17.5" width="75" height="14" as="geometry" />
        </mxCell>
        <mxCell id="4V2U_Qw4gVRa_boo78sr-50" value="I2C" style="rounded=0;whiteSpace=wrap;html=1;fontFamily=Fira Sans;fontSource=https%3A%2F%2Ffonts.googleapis.com%2Fcss%3Ffamily%3DFira%2BSans;fontSize=9;horizontal=1;fillColor=#fad7ac;strokeColor=#b46504;rotation=0;" parent="1" vertex="1">
          <mxGeometry x="445" y="186" width="30" height="14" as="geometry" />
        </mxCell>
        <mxCell id="4V2U_Qw4gVRa_boo78sr-51" value="I2S/TDM" style="rounded=0;whiteSpace=wrap;html=1;fontFamily=Fira Sans;fontSource=https%3A%2F%2Ffonts.googleapis.com%2Fcss%3Ffamily%3DFira%2BSans;fontSize=9;horizontal=1;fillColor=#b1ddf0;strokeColor=#10739e;rotation=0;" parent="1" vertex="1">
          <mxGeometry x="480" y="186" width="45" height="14" as="geometry" />
        </mxCell>
        <mxCell id="4V2U_Qw4gVRa_boo78sr-52" value="" style="shape=image;verticalLabelPosition=bottom;labelBackgroundColor=default;verticalAlign=top;aspect=fixed;imageAspect=0;image=data:image/png,iVBORw0KGgoAAAANSUhEUgAAAO4AAACkCAYAAACQLRIoAAAABHNCSVQICAgIfAhkiAAAC8BJREFUeF7tnO2uJCkORHtH8/6vvCOkm1K2rw2G9BcQK82PIgHbJyIqa7p3988f/AcEQAAEQAAEQAAEQAAEQAAEQAAEQAAEQAAEQAAEQAAEQAAEQAAEQAAEQAAEQAAEQAAEQAAEbiPwv9sGxrxlCfx/0Bm8+gIEGAO34HEYgVFwpUau9PCVQ0sOwHoqgdXgck0f7+vjB+RUxdpWBCwCfZzPjxtoK0ve2ywXxlkvcndoiM7W0dwZvueIIcKpoeAKgVHQLLw4qkH7tqhJ7wz5vG3jIXRQxIKANkweXtTWbnN61Lfgx96xVbPsBFisSEAbmEj/VexpWbtIcMtN4uA2BDThqOC5XfoUha8AUWwOD7YgoAlBG6Sq13r9V+25LMwtHHt5kz3DP2jKGp/RrjdPuTnKNcQAxVIdAj1zv7vc2VfSjKVmKtVMHX+ikxcBycgcpFP8JM1cZr4yjXAuwFoKAcm0UjMne4hjUWLeEk1IjsC6OwHOmJqiN/mGY5Q+f3oDGpdgjxkBzoTay2/2CsctlUdqca1jsG+ZAGc47WXwxt+kKMtUPqnFtQ7CPjUBai7tQfhAR4ryTeOWVljHCbs6BKiJOlt/PYLuv5CoFjjmKSxTiqoQYRMlwJmG7pE+Q2eJzPw61SGFbUrReVZXnqAGmYEAXWdoze+l2oTz/ne+Z5xwIkDNoC0TbhptY9jnRwCi+7HV3LwSVmimIeu/h2oXqgveuP4CvytQsTXVQw2haQh78gnAFP4azIYVmvhrYlXhrW2obqHFrGgVv2c2qG0c6FBcVKE9qnWYjvipLCgyuUwFHB0PE3jUCJ7vSQAGWtNtNqitClivsa5+KuXnMsykt8VsWMFWz3bnndQXIbrjp/LYMlSY3okQ0XoN4NkdBGA0XmdtWMGP53fbavjPZbxx/7aYJrAI622xLDgvgvvnjyasTToEtqCBb23pdjOOQns7n1tzMTs39ZG7b25841LInEju4LmiWAMBLYGbDDoK7E0stP7APj2B0D+guuGNOwpskwah1RsUOwsQOD24vdAirAUMiBbWCJwaXAR2zQ84tQmB0946q4HtnbOQ8jTOFkxOu4N6yFXzU964FBo1RYM42kPPWH7u1XYV2HII3FWHwAmm6YWiDum5Tk7QZW7iM3a/veiq4c5vXI/AWsNe7ZE7Z93bGVG5dIrdzMAZela6KjN/naXKHLP8T94f9satLv5t5l6dt7qOJ4f1PdvVwYV5/7b5LA+EOO9r4srgwqA6w2k5IcA6npa7qDZuGrhdPEGDDjs6WqHnUY9RzzXswCtKjd9/5ejG3u1iBSuN6d7XZPaqGCd9y4gn+MVIFPJzOeOvg0YGi8F7XpUnmBLfZx0BPkD7aBElUzWU0b0cIF93BLDu4nF7GPLGjQyLZKTIHtzUKnwxuMeKc1RwOfNUC+wOPX6x4OnzfWFjefaY4GYbhqtvJVS1L5/RXByL3WYYzZj9nDJ24ety6YscHaI9yqgZKab3fF9nydDka887nad8XfzgcukPZTqAd2i5eiuCNyaWd6304H2Gm8/TC97zVLv/zdeFq8ulgvEja3FCWtbnjM/VfK9Z1h/V0jznZqjWo2aOinuOCa6XITjzPUJ61ZSM0uuFnonujdZ/PnM9V+lN6nmH9S2DS83gZQRaJyuwnJGk3uheLza0Tu8z7bVCT71+d3iG4AoqUbO1bVUNx/VKx8runfaY3Q/ls9tn9+D+40zEwwDUZJVD+/TWOPRYcDM5S4PrdyZgHdwMA/YCEalNm/39D1e7F+AMdk+PlGFmLxw3rBEC1sH1BkwNRQ3nXZ+7/wkr90xakwJM55POY/1yAp7BrRAqb3m/Bo1j9PXO1ZlpL1l9rPZ/1TnP4FqDpEaiRrOu17uv95aV3qbSfdwcdFbpLNYvJbBTcKtIJIVqNrDvebjwZsxbpY+M2beqaRlcydAWQOjdWQajfTyzWfRD75BqWfDEHZsTyPh/wNgRmRQiGrYdZ+v13OY+fcbe/GWfWb5x30N6iu15NydUZGjpbFJtrk+sXUTAK7iWCCualwbMct7su06eLZutWf0dgms2rNFF3sam91f84jJCiWtWCewWXGrq1bm/nEOQvtDDWRMC+MMpHuMonO/nHl8m7c5RD3zn9qutD48Z7TutcWOIbru9cT2lacCff2bqRAgVUWNmZuxNJoDgroWVyrYSeHpHpc94w9qo4cbx9p/KozdZDzx3tq31zszYodLP5Zm+b97LecKFx83BlSBrg4dguVgSl2oI3PpTmQttC6I2tA9b7gx3t0aL0R6ve0d18XyNwKyXpqrcGFwuANaQuRpUmLbn+Yc+w+f9CGg0N5vqxuBSeBahnb1DK/LsvXQ2fD6UwG7B1RpeK5dlMLR3Wc+gnRX7/AhQTbVeWO5ot+AuD1rkIBW4teUucpHZ0YYhgR2Ce4qxEVpD4xa6iuoa4ler4NLmC3Et0QrHJ0TgEtOf2wSna8i0VsENafanSBqswZBSX9w6QjuAucHjVF13DO4XTTnYX+4bneXqIbQjans+D9V1l+CGQlnwDQ2o1K+0vlASR5IINK21eru1aBXcaENScKuArO7R1I9mpOkJe+YIRPql25lVcMsM1J3W/q9evL99d+E6wH7EY0mLlC9kq+BGKJMCqDOYJGTnyLaPbpqVisR9Obc9zY9pntz5fx3UgK6AWznzFrNn4q93U9O8P3ve3at78zNJ63QtrILbBpGGPEX43nzpQjpAvkFTCVt5ra2C2xtUgrOyTs20+tbV1tbM1Qtt79moB03t0R14Pk9A4v5Fy/kuBiesgjsoc+TjUkIeSTh2KCmwrYtyWu/0h1OPjBRiD7iH9K0+7cGjzvvO6Hre81S7X/JQhtYqNnjj9jFlBUYyUr9bPF0hILHO0l41w45v3DYYhSrBV0HApisJNM9wvin7ln2rtGtwT3YaNRP9kjp59qjZKOOn7jasdw4uhSyJEWWG0+qcylOai/qptJ5Wwa0ytCRKaRFezdH+q3DdhV+vz8aW8m37t/hpTAezCi69N+rzScbmTBXFcVRnd84S223n2j24zzfm23iSSCNzZj7net7WVJkgSW3pLcv5plDb41ZOCC43JRcEbl+FNa5XhPa7MhzXJ7Db87UKrgTpO37dDbsKwXHbdRadUv67jn3LvtFZBddfjnEFaviegOPb/HdwofWvenYFiWnzBvXH1iRu+G9ONTEridYz19ZmSm7+Kq6nBbcFlBOwQni5vh6vV/piSc7fdHmJ69FMT/qpPAqBJPC0UyYPtLq92kcbbJLVzPYe1+OZnvbGpeGlgYl889La1JTHm4sObPi5x/YKrqcG9x1gKrJ3eGk9zq9XmIsb/ONaj+1VTE8PbvNJE5QK/ny2Epvez/nTqhZ39+lrPb5XcrUKLheOSmby6q9nqGf+K41lJP6I77VsrYJrpNMW14zMdEpgM0MxYpzZWwmT3hTcr2KPzNQE/VqjhCkSmxgxBt8fcW4KrqcfYahvdBHYSX4I7iSw13aEdZ3dcxKBXWSI4OrBIah6VqOdCOyI0OA5gjsAhMemBBBYI5wIrhFIXNMlgMB28cw/RHDnmeGEngACq2c1tRP/3jaFC5uVBBBYJajVbQjuKjmc4wggsBwVhzUE1wHqpVf2QgufGZsCQI2BXngdApsgOoKbAP2gklJo4StnkQHYGfDB1yO0ieJG/XWQJLLn6PhS8qT7+27w/s3EbcUyuBnh7IHx6Afm7BHHszACX43oEY6w4ZMLfWX/pX1Jt5me3nfMnPvSN87+ELB842qgRggsmVLTX+SeXfqMZIJaSgJewY0IqDSiR22ETKKN9RQCX02On0vzslX6Eviq//z0OAECIAACIAACIAACIAACIAACIAACIAACIAACIAACIAACIAACIAACIAACIAACIAACIAACIAACIAACIAACIAACIAACIAACIAACIAACIAACIAACIAACIAACIAACIAACIAACIAACIAACIAACIAACIAACIAACIAACIAACIAACZQj8B1usTycCPZhtAAAAAElFTkSuQmCC;" parent="1" vertex="1">
          <mxGeometry x="520.5699999999999" y="-25" width="63.85" height="44" as="geometry" />
        </mxCell>
        <mxCell id="4V2U_Qw4gVRa_boo78sr-62" value="" style="group" parent="1" vertex="1" connectable="0">
          <mxGeometry x="-30" y="17.5" width="175" height="195" as="geometry" />
        </mxCell>
        <mxCell id="4V2U_Qw4gVRa_boo78sr-56" value="Exciter" style="rounded=0;whiteSpace=wrap;html=1;fontFamily=Fira Sans Medium;fontSource=https%3A%2F%2Ffonts.googleapis.com%2Fcss%3Ffamily%3DFira%2BSans%2BMedium;fontSize=14;verticalAlign=top;" parent="4V2U_Qw4gVRa_boo78sr-62" vertex="1">
          <mxGeometry x="50" width="125" height="145" as="geometry" />
        </mxCell>
        <mxCell id="4V2U_Qw4gVRa_boo78sr-57" value="Exciter" style="rounded=0;whiteSpace=wrap;html=1;fontFamily=Fira Sans Medium;fontSource=https%3A%2F%2Ffonts.googleapis.com%2Fcss%3Ffamily%3DFira%2BSans%2BMedium;fontSize=14;verticalAlign=top;" parent="4V2U_Qw4gVRa_boo78sr-62" vertex="1">
          <mxGeometry x="40" y="10" width="125" height="145" as="geometry" />
        </mxCell>
        <mxCell id="4V2U_Qw4gVRa_boo78sr-58" value="Exciter" style="rounded=0;whiteSpace=wrap;html=1;fontFamily=Fira Sans Medium;fontSource=https%3A%2F%2Ffonts.googleapis.com%2Fcss%3Ffamily%3DFira%2BSans%2BMedium;fontSize=14;verticalAlign=top;" parent="4V2U_Qw4gVRa_boo78sr-62" vertex="1">
          <mxGeometry x="30" y="20" width="125" height="145" as="geometry" />
        </mxCell>
        <mxCell id="4V2U_Qw4gVRa_boo78sr-59" value="Exciter" style="rounded=0;whiteSpace=wrap;html=1;fontFamily=Fira Sans Medium;fontSource=https%3A%2F%2Ffonts.googleapis.com%2Fcss%3Ffamily%3DFira%2BSans%2BMedium;fontSize=14;verticalAlign=top;" parent="4V2U_Qw4gVRa_boo78sr-62" vertex="1">
          <mxGeometry x="20" y="30" width="125" height="145" as="geometry" />
        </mxCell>
        <mxCell id="4V2U_Qw4gVRa_boo78sr-60" value="Exciter" style="rounded=0;whiteSpace=wrap;html=1;fontFamily=Fira Sans Medium;fontSource=https%3A%2F%2Ffonts.googleapis.com%2Fcss%3Ffamily%3DFira%2BSans%2BMedium;fontSize=14;verticalAlign=top;" parent="4V2U_Qw4gVRa_boo78sr-62" vertex="1">
          <mxGeometry x="10" y="40" width="125" height="145" as="geometry" />
        </mxCell>
        <mxCell id="4V2U_Qw4gVRa_boo78sr-61" value="" style="group" parent="4V2U_Qw4gVRa_boo78sr-62" vertex="1" connectable="0">
          <mxGeometry y="50" width="125" height="145" as="geometry" />
        </mxCell>
        <mxCell id="4V2U_Qw4gVRa_boo78sr-54" value="Exciter" style="rounded=0;whiteSpace=wrap;html=1;fontFamily=Fira Sans Medium;fontSource=https%3A%2F%2Ffonts.googleapis.com%2Fcss%3Ffamily%3DFira%2BSans%2BMedium;fontSize=14;verticalAlign=top;" parent="4V2U_Qw4gVRa_boo78sr-61" vertex="1">
          <mxGeometry width="125" height="145" as="geometry" />
        </mxCell>
        <mxCell id="4V2U_Qw4gVRa_boo78sr-53" value="" style="shape=image;verticalLabelPosition=bottom;labelBackgroundColor=default;verticalAlign=top;aspect=fixed;imageAspect=0;image=data:image/png,iVBORw0KGgoAAAANSUhEUgAAAJYAAACbCAYAAACAn2I8AAAABHNCSVQICAgIfAhkiAAAIABJREFUeF7svXeYXcWZ7lsttVqhWznnbkWQAIkgwOQcnbAxxmGczcyc8TO+zzN/3DP3PCd4zh/3zLnjOx7sMTbGxgFjHDAi5ywEiihLKOfYUit1q9Xxvr/3W7W7xYCNkLCxr6u1tfdee61aVV+9X6yvapW1q6Q/q0J3ytyj1pbWtH7D+jTzgQfT008/kw4dPpSSfm7R8aNNjal7926poqJ7Ki/v5vOrqqrStDPOSDd97KZ06qmnpl49e6YuXbtwSVGjT/tLeQcUKPtzBdbRo0fTnNfmpp/+9Cdp5cpVafeePenA/v0CSXvqKcCUl5cbSLy3tbalbhUVqXfv3gZer1690s0335yuuOKKNHDQAAOsrAtgDR5sF8wCuu+Awv8/PeXPElhIpBdfeDF994470s7tO9OmLZvSoYOH0vARw9PAgQMlpSpSW1ubAQRWWttaU1NTc2qob0g9evRI5d26psbGo+mmj96UPvzhj6QB/fumAQP7p67lXQ2TY4GVBf5foNaZh8r/3BgKxb548ZJ05w/uSlu3bk3r16+X6mtO4yeMSwMGDLKEam9r17GWxLltra2prKzMYCsr65qajh6RdEqpm8D1wMzfCmg901VXXZWamo+mYcOHpa5dy/8ird4BaETCP6+yd+/edN9996WNGzcYVKjEMWOq06CBg1PXLpI4NpjKBJywq7p07epDmJoVFd1Sr8pK22Dl5RWpVaD71a9/mdat35AOHzqS9uzcLVC2vYlgSKq/SKs3o+jPClhIoVdeeSUtXLgg7dixIx0+XJ9GDB+RBg8eLCnUJbW1t9nGEq5slHfVMaRVFw4ALoGmi8RVdxn0Lc0tssV6pf3769KTTz6RGqUq6+oOpIbDh99Mw798fwsK/FkBq66uzt7frl270+7du1K/fn3TkKFDrf4ogKhzaZOUQiphb1kv6mfsLd4BYbmkWffuPdILzz+XNm3aKBurItXu2Sv12fIWpPzLoc4U+LMBVrMkzJIlS9Mbb6xOtbW17iOGeg8BAzxZMklCObiiF4BCwvHuY/rdai7w5XNb9FulDPwD+/el119/PZVLVR5uOJIaGuqjkr9g6W0p8CdvvAOOXbt2pUWLFqcHH3xIqmt/OnTooEMKffr0cZgAiYTBDoCwpdp1jO9hcBlTYcjrmIWaXhWywY42NdkW6923j0IWywWoBqvNA5KMlZW9ixDE29L2mB+4b2eJ+ebv76yWP52z/jSBJUw0Hm1MW7ZsTS+//JLsqtnyALdZ+hw8cCAhvQb0H2hbKaSUVF57iwfWg5slVGmwQVNbCSidbS5+6dmrMm3fvj3t27c3DZW9tn/fgTR0uAx8SbW3K4C5QdLtwIH9afPmzYXNd1hhjSZ7oH379k3Dhw9Po0aN1uc+ZgTa+udS/qSAxWARX1q7dm16+aWX0wsvvCCDuk6GeMSXGJQjjZIqkki9KnvJJorgJwY7JUsJ7CcGkTAndlZ7Wbu+yzvUcdtbMuBLICzEGZKwrm5/GjJ4qNrQlBolvaoEjqi4Aw6AesfOHWnZsuVpthyJ5SuWW4riaeIs0KYsuZCG/fr1S5MnT07nnjsjTZlyahoxYoSl5JvtwY47/Gl8+pMBFmGD9es3pCefeDK99NJLab8kE0a5DXPsI0sfeXsaPI51FdgMDiLmUnFIMyQRwc0WGd+oOl+jceI8PlOIU2WA4UkafIrMNzYeUcjhsIHXLPVbr+mhKkka601uoeN7du9Jzz3/vNu4du06HWt1RJ82dVObkFQ0sgRaXb1v3z57sq/Onu0A7kUXXeiI/+jRo0shkT8NKB3byvc9sBiwbdu2p8cfeyw9JY+PgQA0Bo8GLOCQOxUGelYpJdWiwcwqsbm5ydchqVz0bimVS7u8Qh3LUhBph6fI6eFB8l1AO3KkdAnqbf78Benee3+Rli9fHiAWoLt1k+Ogd+6X42WuG3Bxa72IrdEfgL1j+47085//QpL4xXTjDTekq66+Og0aNPBPUnq9r4GF6pk1a1b6zW9+Iztli4lf0Q0JgOSJkqUNwOF4ZWWVVM8BgUVn+CSM9jgbAHlAAYlUk6UZA61jAI26GOh2H45rCDkAnO7dK0pTQdTjsIQK93r00UfTL+/7peNmXE89YafpXfEyAwkw6zra6Xvx0mcaFNKWc8UwheT76U/vSXPnzksf//jH01lnn6Xpp57R4T+R/9+XwMLTw466/zf3p2efe96ER0JZbRWgytLIAChAgJohqIm91CwwMPgxhRNxKoKfoIhr/CcVx+ACIQafgeW9tZjyAQiAAG8QI7tSdltLc7OBRjv2Kcp/jyTMgzMftIpjLpEpIgpt0KGoX3UAXurm9wyudvUT2RUAp3MEbtUGtQlwrlixwtkZ1113XfrQhz5o+6skhd/nAHvfAau+vj69+OJL6Z577kk7d+wMIhf2UgwYdg+D4P89AJZEAg1g6d4dTxBwFIa4zkHVAL6s8vid6wk55EF0XXoBMt45l+uaBaSj8kBHjRyVegi0eKOo05bmNqmte9PMmQ+V2kAcDKA6og8DFKDnPmqNz+O+bofes3rONpev1/H8wtA/cqQxPfDbBwSylenTn/5UOuusM93H93t5XwGLSePfSEo98fgTHlAIS8m2lKUKgCgGzKpExQMBWDRePZWdQLQcY58XRrMHETuGuvRCTVpVlaM+O9XBMX7nP53co0f3VCupBNRGjxlj6XJUXmn9oUPpsSeeSg8/8mioN0CNVFJdWbICbGwy2kb7kYIZMFTPufnelqCWolHyd5iBa2j7ypUr0//6v/9X+vBHPmzpNWTIkOLs9+fb+wJYqL5Vq1alH/3o7rRwwUJ7Ug4VFBKFgWXMA0jx2cZ3IaksCVR449pBgwalTRs3KlB6qJR7xWB5YJFeZWGs54FFPWUQO+tB96UermGukPnG0VKFjtZLDa5UW2e9+irNMpBQj3Ym9ELqUHsGDnVbCure1JcN+Whvhzeav3eGCX3MEhVbD5V8zz0/1/TSpvTZz34mjRs3Lrzizhe9Tz7/0YGFVJk9+9V0x3fvSHs0FcOAZs42mPSClxVqsjrDsKZkNdLB5zrok9s9lUOWA/Ej4kQMOurHUzaAqxhkRpxLSh4gA6kDLYIGmQ5799YaTKeeOkVR/H5WS/v21abFmjpiuidfT5vdNl5upt5xHmi/JFMGNarVkrK4f86U4Heud+H3oo5s7HPEKla/0VYCwoDrr//6tnTOOedEGCOuft/8/0cN9WJPzZw5M33zm99Me5ThWe5cpwAHxGYQIGqWLK0ytrOd5MGC4PqzUe6xkS2jF/GiMVJdRxQSoN6skqC6QVvUicfmY8WLSlCpRMGJW+3atTMNHjRYuVwT3Qai6IsWLUq1dfusZks2UVTs++A00EYcB0sr+gEoCm8xA4dLDMACUAAnS97cJtuGKiV7kT6r/TAKMw3/+3//P+kRqWMA/34rfzRg4ab/4t77pP5+7KkPExFM+S8AkD+b+AACgxhVg+RRCR7PksEXu0B8pkxOPeUUq0OkF+ArDV4BLoMTKYC9o/vzuVu3cgFE0XOl3WCrTZ16mqaH+gtIRxRR365J7lUGEIOrSj2RjT3IeyQNdoCVdvIymLEBO5fi3v5NL0ss3ouSQXcM+Dr9zv2h2/e/f2f6xS/uE+gPHFv/H/nbHyU1mWmYe+Wmz3zwwRLhoYNlif5lNWdJBVfrtxKB9d0qBSAWv8V5cY7FTzFGHG+SB8c8H+OGWvScXDFAWU1lu4f74/HtUsoNQJkiFXja6Wcow6FK7WpXoHar1TbgyyqNa2hhBofBq7/MKAC6S1caVYDHHX3TZ46pfdFTn2nwZqBRd2YCd6QoSLKQeO3pox/9SLr11lttX74fyh9cYh08cDD9+Mc/Sb994IECACGFIAb0tmQpuNiRbgipV+Z+n8TvkL84j4HwaHBIbw6g6jKMf6ROTXVNGiov6ujRJgc0D0sFE4ui/gCZa0sNRxrSTqk/7oVdNWnSZN/n4ME6zedNVFC1pQRKbmkVp9hVVuG53RwrJRIWbXET3bewuQyPAjBmGsDJMQOMn8IDLrrl+8Z5wUD5HH6nr7/+9W/S3Xf/OO2txYv945c/qPGOuL5bqu9xhROy/ZAJWdDUoPDngjM7c2tnYjORnL938LAuZACiBgOnqemo7tXFc4NkJlCcSar6LelUjuqc+v31tpsw/KsB4tBhVomA6vrrr9diigFpxcoVBpLTmnU9EoNiVUq7C6bgO22zGtTvfM6ls1TKUij3lbbn1luaUjf2oy73uUVdJaOf35HeekfqPvbY45a0X/3qV/7okusPBixAhS3w+BNPFCxZorXBkLndnFkQEEKW1CFAKwbIv5cuz4Ohd0sHDbiISwzqFNlYF118Yerft196SGp33br1UbeubtYCC3AByPAAKyuHOH2lf78BXkDRUH9Yy8GqBKob04xzz0tPP8U8ZZ1X8djGUyMyc2TwZ6AAujxFlEHFNR3q8z+SIHcnn5/7mPtZqpsTDUDdvxNg2wzuLukZzadif33xi1/4o4LrDwKsei2revDBh9MDD8wMSdSBCnO+JQ9cLmJZ9alYogCy4vc8eHkA8nu2bzgP47mqqjKdf/756eKLL/aiU9YOAoKJEydqgnhZ2rBho9KWa+1JkcXQKCnlKaAWqUbNH8Lx5QqcnnPOB9KZZ56pwOhYS7JVMtoBElIQiUEWBA0GMICNwc42D33gOLEnM0N06Zg5QuYKcwmYuNMlpuK3Esg4t6BFwRmuK0tc+s4LlQyjPCpPkTZ9/vOfc7LjH6O858Y7tgyTtHfd9SN7T0EYCBGEy5wcxm4hcQo3nQlnjGafqz+T3QMS0il/RpUNGNBfy7SuTJdeeolCDWNjzWAnihJ6wDvcrXz4TUq8W7F8hVNbcCSaPP931KBhMMmLqqmuThWyz1Axb7zxRnpl9ivyMGMhBaow1F9ICb57jaLaBZjyxHOWLLwD2CpNkFdoMpsMjRLo3mrUC4AdAxwBFfDkOg2mfG0c9m/Q07ap3j/3ub9Kn/rUrQH8t7rPe3jsPQUWxHxVEepvfet22SoH3Y3OkieDJQ9S/g1VZilWhAB8YUFIpBrWBu/Einr27JEuveySdN2116aamnFWgW2tmjiWIU52BJPZ69etSxsVUCSoiIfI8cPKpyLm1K6IK0Nkg5/B882KaR+BCtvMUXW1BSnBgNIvXiFVw54K26tCK4IGGXRZgrihKgNlo3397//ethr5ZM9pcn3f3n3h3er3Y6STvnM9x9zTQjIaWG5gJ1BF9b5NR9sDXAD+a1/7u3StaIO6/0OW90wVQgQG9Qc/+EEJVPQ8pE4QR7rOhMtEBTy2X94MKk43kYPgqDCIOGPG2XKzP5qmTTvDauColmht3LgprVmzToCebVDThsNasgUwukkCdtM+Dd17VFhFduuqTE2BgIoBA4l5qMOidY6eI3HpC9KW3zkPaZMTBcloZR+ItkZUX7klX0i0stS//wCfS2IhE8jnzDjHIJ0wYUI677wPyIl53El+zpZQ/6KbIbUzOGmbjfUCVHZadKJ/d0OzuFI3CvpSV073+eEPf6TMjFGmUZaAvtF7XN4zibVdSWvf/vbtad68+epQR+owhIAgwY3BZVliAarg1DCModmbC/Ny/bTk/ZOf/GS68sorZHD3cxB0zZo1TpCbNetlZwIgkbgvNga5TGz8AahaFL3HS6QRQJWByl4igPUxT1IXUzGKQXXtojlATfPQNtqItEK18k4h0t+i+Be2GEBjugecDBww0PcfMnSwpPa3PLfXuQB4FoH89re/dZsBv6U2QFIpOQDFRbSLtlI6SyhDkhtm2hbX0l5AO3XqlPSP//iPykodVdT03r+9JxILot9///1p7mvzbG8YLJCCvhd9ytzjaZFO/cyfO64pDHidgy00Zcop6ctf/rLzxIlLzXp5lj3NF5T/vmnTZoGohwazrzyiwaUBskuOxCterS0Clwx0wgmo0xxbYuC6Sooa4MKevTipypCikRPmCWqpGOw/gEiacqhGLXSVN0lqDSq2XkvEDkj9o5KHjyB0oeketd+hiqIgNS+44AMCXI0WxT6VHnroYYMzpGcGUKhqq0GTsBO1oGuWdDrOPCqhB2icHR+yO5Yr/55ExNs0t9injzY++QOUrv9D5UTuExKmo7MQ+dlnn3OaLl3MgPIZBREgnFNhCpEUIGMAI9rMaTlnqpD3Grxm2QrXpL/5m79JI0eM9A4yd911l6Tit51lyjUDBw5Kvat6a3cYkv3C9rE01I8Qu+RxIpGQWjoOaGgbKhApBQCQapZY+kONOZbk5oek43POhkBasRUSEX3qalU7K5QvRWCWNjEVBKORssw7U03sapMZC2Dw/dRTT9GqnWFp44YNdhIsuSyBgoadAZSvjTYVtC+kVaZxaASYKYC2WhId+w81XIohulfvTTlhYOUO0zwIsU6G8nf//Y60XwYynSrYLPhMB/JAdyYAnzPIeM/zelwbYGiXh/PZdMsttyQmrn+hvRlQLU8//bTtmmEKZvaWlPLqluIaJqy5fawfjLAA3wEv8S6DqVC9fAlQaL5P94fwtuPa9EMxbrxHd0JV2ZgXQLO0o19M9fTs0ctqF0AStsgSipSX119fmBYsmO++Dhky1J5kph+219ixY9PESZO0rG2zJ8+dJg3zQRPVn2lsLsntKj5yyCpUtCyNia7zZ71gnNVrVjsEM2zYsI5zXOvJLycMrM5NOiTR/7Of3ZOWyG6Iok4WGQSeMyukh20HnVCSWLZnMH5jysNLsXQGS9m5/D/93d8qLnWJ1hC+7EwIAq3EoUaOHGkX3oMu4gEOBshhA/5iLPQdkAT3M05c4O/FoAEO2ubB8SDGqAUAA4SMD+fwC6DhHnzhGlQq11EndRHjIkceQKD+DDQNLPOQpPK89tqctHr1G7a/SDfOEoT6WTwxZcoUr+beorAIajy3yzSNDvh+IZXoToCddwotdm99Tpa2ZXZidu/enc5WDn2lNj95L8tJAxbci4fzcyWiQQkTw30u5rzgpMx17j2joo4DNgDlXgYh+AyH9ejRLd12221pnMIId//4x+k73/l3qYqNEulDlHEwQAPNZDCrXGJKBXCyVCtAUgDH9QY4cuJgTJMcm77MWaEWIw3HAGNQvOYQdcpn1ClGfEyhZPsxAzqD2/Wof4AcWyw8SpagtYkhGmyTbdq0wfTC2GepF/aWgaIX6nLSpIkGIXZjADrAYluxAHjuWahLd7QEuBLwTGeTwPUAVlTv1NOmvqcq8aQBi+mO733v+2n3zl0xtaK+eMDpGMSgb3rPYDMRBEa7z5xjojBg4lCpq4qKcoHqr2UQd0+33/5tTbL+ylkGZHP20spkONHXcakuDK4mB4pcqEhXsTFOhNwAjkHjPkicDhe/Q3qFkR6Sz3Et1xqFtlEvPRH08lgZjNiLJc9S92Qks13G/VGH5VKT2Yvk3lxHLv2cuXOd24/0JTOBwacw+JMnT3IwlfhbkCjoZ0Kp0BJL3QI7xUklWkfLaU1It1z3RmXXTp06VfOhQ0u0z+eerPeTAiw698LzLzjCHi4zvY6BNKQKbjERCqJAmsBEQSSDjyMCY3l7+msZ6UTKCa6SrjxSKoO4UAeYQnoEaAK0SC8AlAc7Fp+y56gi/gVxSeDbvm2bU2CwgXqwMIGBsRqjzRHP8iABSI+ojgM0fffGazrkVBu9HKLIfeUH91Xt4IPPI4SAVJZk1edSKEP3Q4IRAlm/fr03HemvvC8SFJ3rpYK6IsOC4DK2K/2LajtA3xn8vkiFFuf28+7vuagPhGca5VSce+6571n26UkBFrr7PrmzW7ZsNcEpGhL3LWJYmcM4HiDInQ2ghJEO5pAmt976ybRTku873/mOE+4spUTkvDzdkoUBLUDkQWegdNyLMDzgHSTnXnn+ju0gtwpUETlnv9FKS5RYuhVqlEZydaig4IUCMyUJYemre4QUcG/dX44jNdGc2Qmhbfk83wspWhDAS+8l2Zmknyvpxe81NTWlaRjANX78eKvFDRs2+D7Fv2NoWaKnf6Qtei9okIEfTBgLPpCCOAvcK5inA3sn49OJA0uDQJosy7UQ8UGw6FgQMwgRIrs4DvHpNBIBIBafMW6vv+5a1dNsr6+xEQN9lNQhrnuXYq4xQAq4GJTIkQrpYYMadELYAt5IiJwmnFNR4FjCAlW9+0QAVeEJQgbEkDydZLUJg8RaQSL2sSiiY2aA++BhsqVRqNUIVXD7KDElZXWPasb+cz/lYEgtcl62+ezBqsFNisvNmTvH4CIsQAiDgv3F9y1btqRtW7favOA22czgHIOnYKii8wG8ojWZJrbPdC60IqefnHlP1J/kcsLAYtDwcp6XKsyRY+wTuDAb6wyyubuwi/juhZ3qIOoBSdMoL+8SZSQwofyDO+90XeREoaqQHnE99cagaHxMoIhOh+HtuT4PbNhuOc8cD4228D0Mbtk3ug/r8/DoCGEAtkOHD2pTkYg7sbkHQGfwugl0AI4BA2S0DQm3Rx7WBqkxpAnLzry1dxE9p68AKhgKEUj/w6Cn3TEtpIi96ODsiibmR0NSzp8/38OMHeTMCRUkV3V1jXLCVqa9xTYDdNX1q1CnGZU/KiqKP+tlRoHnYBr9Bi3QBoQesOWy/VW68AQ/nDCwUClPKPK9evWaAJaabS8vd45+0zG4SX8dx7N6IIh4NE1S5wg2EqOCo4dL/eV0FO+gpzroPJwG1yOtAJK51oVRieVVXE+Q0gsb8MRU/2EBhyg49+I+TArj7sOt3Ictj5iozXEnbDE2/kBF8TosycS13INBpt979uwWKLVRiNqESmV5P/3zCmwxQIAmVKMZoxT78hgXQC/iYfqOLZiBsmzZMtOTuBMMQL3sUEgi4oIFCywlQ9UGkDKwIEOmMe/xCvOE822p6HgBR+8XcfY5Zztt+2SWEwYW9hUrRXZrpxWGGI7IHYZIGUz2ksxdHYYnncYmYte8ASLYw488rN/b7K0g8QCF6zDDh0oBXOaugmgAC8lArTmaDoE4hiRh87Tu3ctFuAH2uljoSf18HqhdlPvJYO4n955XH807Mr9HOIMA5iBF8kn+Q7o0S8Id1IZubOrGPCQSNjy7kHwAtaIbANDUjqLutNepMWq72wdx6ItUowOw+gOAIcU0US2gsg24zYmi/UTrBwwYYBsLZoBetAsGWLhwYdCAk115QV6PQnZEYrFsBhjHDdxiDR1jcuDgfgd2e8ss4Ce0jccqRjNX7fqPp5wwsAjkASynxaiDoQrC/S4QYSCU5ErhXUX3U6pTmILrXteGtBB16NDhJalh20W9AWABJH1hcOihB4kplEixcT6U6uEhAczRoSLZ1Ha4RP3gIYPN7f0G9PW+WTb6CaJ2wTMLFUeVFdpjNBbKKqtUKq+PiA3w2MZ7oAKX3iFQRCeKfvDQAYcLiDkhqQjUskFblhZig1DT8nKLcfdYWV2hJiV17WQUo1UuuyoAWNiS+oXv7N+AusLGgo7lUsEEVdnFkLCBnaOCJgW8wE9JklO/VbJtvVg8i20XDAst2z0BPvuVV9NCeaZstXlQU0qAjHbSdoPNoo7aMog7aZ+iD53fTngSmvmveu2yAudlcdxWbAVEM7Lujmi7KetOwRXmfA0ORiQ2D6uNvQpaxPIcXWFEl3WJCVk6iwRCNWLPUCfnkIN1WCqJHfeqqnqlcaPGpv5K/ENlAYhePcPzIx2ZNh4+VJ+OCByetlGdqFfaQZsgdPPRMs/rHZETge3TrZy5wEqBaIDWGQ7V3lx1WrSwRwtspQolseknth9Skfpx5WN6hbEgEh9hiQiHxEAz2BRLEBWugylNmy49HUilXTDu7bffbia54IILfB5gZkXO6tWrvZFvhDcYdg22pJG9ZP4AE04D99JtoCkSl4xeZ2GYHnHvvlqQu0d9WrXqDdnLL9pjvPKKK9K06dPFNL0UCunndKPMJJmB3Pi3KCcssegYc3bM8gOirLKMa8DGG58z2IMVTKCGwmjGeMamIruSuI4JFBg0cT1loj8kBcYy0xLdFEBlZ5lmDT6AaheYx4+vSdPPnJZO0YTuCG1iNnbMSIGrp/dvKFMEvVwpML1kT/USgXjaRJ/elZKYe0XsA5KSXSXN5H2qqUyrAMy+knKVOoccq4N6sgVeKhKtj4KXfTU3SQiEmFP8fsCbwSFlsdMqlSLNu6en8DQgAaApjHs6CJCz1Io4Wgwy56EuqReaYm6w3SSp0sS6oB3Sk9+sEou6ec+eIpQvBW11/zotskXCYbBD0549u9u+RNJik2IDH9E6RRgFhwm7cvHixb738OEjfQ/uhxr+faDi3BOWWEZMMF0JVBCJtBM3IL8Ai27o6LUaiAoj37xOqgvRXqlOQlCHBmyTFLZauUikyWCura8/JMlEJipLsg5aarUqV338hOo0bvw4AwKVCAGGyY6qqRmjbIcqS6wwzGM/hvbCAeAe7GlFXUjNXZr43a5HpLBEbI+yO4FDj17d04hRw9KgwUclPfbpN7XhUJsHZOiQYQKZACqQbd++zYPX0HBYdR6UzTjIqhSAZFsxJIuIhUSRBkbiFtl56q+WkeF0qG/1DZFd0SJ1DFNRBwAipPP1r3/d4ALQl19+uQ35uXOUnoRKNLnNxmZEEdRSaYeyZrfphZ02VDZab4GSUAZMzHWx7lGna9yQ1ICqqqqP5zsfe+wRmRYH0idvuVVtITO1TbaoNvbVfeJOvt1/KCcMLDoNQVKxwR03k4JRD8PIzqrQkgxCUvR2UF4a3IOINfepoa0W24WRbrUUc4Y5EIpRzKu1lUh6m2yfvum0005Nffr1NhHGjB6ZqseOSdVjqlNfGb2eS+R2qrebDGuAQoyM1S3tbUxwd9G1A9MgAXzy5FN0P3mQAgZpzEuXrdRg7EprtbKnYkCF1FwfSa8eaURza9q2RQ8nONAgkDfY6B01crRmY9HrAAAgAElEQVTbJVZI++r22sg/IunWrEHsJ4cA5gpJQhoO3myHAe/jhd1JSrWlggDlgRPYDh7abwnDcXLcTjvttPSRj3zE0hCVeNNNH5ONtMrS3BqD/mJT0Vc5RkipndoTtUrpRGzFROzO3rTUM4VrMCe4N9c4ZCLQNh6p1/15oFWP9OwzT4uRKtPHPnazmZ/SV+CiX29XThhYqCNcbR6CZGKooZRAdHFjtYUGuVE6B3sKV51z4HYIh1cED7itSC6rv2g7aq5FyXm9elZpwnaszmnWdMQ5adSY0amHRPOIYUO1CmdCmjB+ogjX17u/HDxAXIpl8TttpxwRCBhsFqviSrCap7eI1btPlaTRINsweIY9e/ZRdsHpadSIMbpuj4C1Nm3cvDXtlNd7SGqBbFDiPpG1uj7trdvjUAV5YCziaBHosWNoPwOK90ieO0DA/mEgmZmJ4YlFFqZZ4amJn/Rbu1S0FlzoGrJfUUcUwh13KsZHkuPpp59u+pHHde21V3ufLkoMPDGtNjHudrehX7/+9iZ7Spo7vigHgGthsnbRqktrxAehO0zclakxMSqP4UPtI/Ufemim97A4b8Z52jW6TtKuq9X925UTBhZ6GqmzUwOY8ZvtiA5AG1luA2oOlYG6QV15JY4Kks/55k6DLOSeODuLdwhCxuiQIf3TqcoixUYaIjvorDPPSjXKwMT2aT7akhYtXpbe0DZDGzZskl2y1arWOel4ltEE3S2MW+5CxiieIuEHJoLJKqipqU5DBg1w1J/ku9HKqFizdk1a+cYa7Y0lO0RSDQl25pmny4tao9yzg1qWX2fVWF1dk9auWW0VA0BQI6gabDJmEBh4GMhzjDay1SyHVQjExr4RtVLJMAErjwAkcSzHrQTADes3aHuCe9P/+Z//sz1dVNoVMrLx6vbs0YMToJ8kzQHRF2DxO+EVPFdoXBoHtYOxQHJZHaot3kFHxeAX+7G+EqnH+sp9GrMnHn8sTTnlVEvKun37rSUA/1uVEzbeaQRbT7MY1KJYDeY9N5B3ZxtAUCENQ33r1i02HMn4ROyawAIRXouzGyyxYilWxMRYz9eSRowcKi+FhRNd0ngN4DV6KteY0dUa6Mb0+qIlyh1/0OsXF+nztm1SV/L+CKSamGBU9zfRUNN6RdA22QE4oKX/W7TP6fyFr/tZPFyPWu6vuFZfqep+UrfYcNTXV8FEVNhBgWb8uHGqU/afbDUGgWcbQmwATTATuwYmwuskL8uDq2vpn/PNiu+EETDWWUUEk7ARCc4M5+FxMhMAowIEVDVSs6ZGDKXryYRAqi3VOABapP96SVqkKvYr7aDfAKmr2gCzxjSSPFG11Q6TAR80ok7Op48wJMFeHKA1yiGbPPlUaY0xHg+YsodSwV3hm8oJA4v6dumpWPPnzfPA0cA8CcwAwrUWz/oHcHYr/kIEnEBlfrJpcBnjj20gUGnwDABLLkp7Gjl6hAiJGmxPV4tDz58xQ793S3O1W/Gvf3V/euqJp9MWzVk6Is/tbGeEiDLR1Lbcvry9UEiODtuP8wB4g4C6Zcs27YO1TFmXa0U3JeBJVQ4eMsjhjEMCUXdlijIgSN8xsuvIJd+l9BcSEHPYAC8RFQswAa4Zp5iSsm2lAeE7YCGCz74RRMAxD7DZGFD6DggAKMCjYJCj3j/wgQ/YPgUI2FAY+ABsv9q0WfOK2EfDhw0v3ROmBZ3cGhoFkwXITSPRO9oVIZggX4Cru+7PGkzuc4aeQsv3JmmCSkmziKW5O1FU9wkDywMmELyoFTJwPnXH1EV4dvxOL+gIHLRN3hNPjcALdBgAKadr4N7slnv2XwcBJioQrwzbpo8IdfNNH08TJk5KmzZuljH7oIKzjztYyKDh1RvE9NH3jX66v0WneTOAOGbAxU8ZfJzndug3OJyHMi1bukyhhENqwwgFK0dou0h5TgcPp0kTxymkMdoVjBbws0lgQqvgHbLV0FANbpWkyj42chPwAQlgympkv/bdImRClB1nAIaLIGrRPqSrGhoJg0FX+lxTU+NtBAAWYKyVKlyydIk9VDw7FpSg4pnfdDijkEKxgCQYzWSyw0TAGI0TtDIT8hHlo8+MCTv38H3GjHPtWQJ0whZMnx0jtFRn6CyT4d0VGoAdMn7CeA9usENwAzXGoMZeCWxcRvFyLBEjpBOrXGLnF9bF8UKU03laN2wk0yuyfwQsgoLD5YG9Mntu+v5ddysTYJ6NZe6JTcBglIoRE8Tj3WACMDSodDyIyjWOTvNT8cc3pzTrGoKys2bNTt+74055YKslvUaKY3vIcD8gO2x0uuC889Mg2UPnnD1NIYCLRGw8NtTnAPdlp2wdFjKMGz/eIRZiYtTLYNbu5ZHCdQKVmE2JjFkF2Qaj3biyBnm7bJ5eeo8eYnPde++9ftgnBVU6ffo0S2rMDaQTYRaCspHGA5MSWkDNkUwZXAeQWLHEWOSxcqxIxessUdnQRidithBDZKosMjM0Hyph8lblhIFFpRhzF154gRocA+msUB0PFzvm8hDRRHbhIKQVBGwSke368iciQrO8Jg+Dt7/CCcMEqAFybW/66Mc0vTIoPfLo4+mnyqvfyUMp3fmQhhkslqCmUHB7wYAmtO0qpGDBuY4rFaDLxKPhMbhBGoAG8SEssaA7vvc95d7PcgR+z6669NRTz3rD2wnjJsrgH5IuveTCdMklF0hC9RTohluKYfhu10MQhknikcjHYHHNToVbSLsh5gVNuDf3g37uAbQRTfOKIAx5Bje3ld0Fn332WX+nNCgG5dQf7CJsJ3nMADuf71VQogu0di49jFz0HynK/TmH8wk/cIC68iwFsUDiXKwiyiEQPHBX9KZyUoDFQFx44YUimjaAddhATdIxShbh+YkSGO003A3TIBuEgYToZAGIgXoG8+hRwxUl7y5J9anUVeL8Jz/7eay9k8cU1wSoYiDonCnlwQmAdbybTMV9OMdt0yvbGb7aUo22F5O3Pss/FC8evFQv9fuIdp952vOaR4+2pnkLFmmgKhT5n6Qwxch0zZWXpfPPPVNMNEB9GOWgLQ9AgAZjx1Y7wEi4hSkmzIKe8r4cVNZ9AAIP4YTBrN51e+gFoKBZabcbHac/rKbepoxYCuqP6zgXEDo1XOOApOIzJdPA4ILRYrQCSLoZdl0+lzYxng5RiFieVFeLsK1sOgA8/c7nN5eTAiwqxaX94Ac/qNvGTfLAclNEM7sPYz/Q0ThFzeKzWszcYsxpsbqGxLbKNEagGjKovx72/eHUS7GpX9//gPc8cJoxnXJnqCPAEzAxpIoWvLmr+XsBEihlDuAdG4J04vjqH/QPO8j2SEkS69bYI7KTliutZZ4clsEKMSxdtjrNemWO4lPlCjloh+WRo9K1V1+p+JoMd6nEmppqSZ0yPQxgrds/XiqROVF7xBrcvAyt6JLbApFoGo4GEpYX7fP24vrUWWrRDkDnnDFoU/SHcwAav1FKxrr6ZNVX9BGaefpH53CupRxjUkjCsINDckebaQm3Yn1BSEEf6FROGrAgxiWXXJJmKCOxRCjdiMYx/4SIxS025+kYhiCDBNfQoxx2YBD7D5Sno4nnC+X1EBB9cOYj6eUXZ9neIN4DYf0nIprnoAijksFGBzN+4qMHJSL/gCYTRuQtiOeBtBca+VQxwc0AxyAyWNlj4npuyTrBlco+IL1m0eJFWpS6Qg6uUlD6DEyj1O7LL7tYdo6mhGSDVsujRdqtX79ehna/VF1d4xACk+fkjVk6qYNWQwyWblAKiahfMCg0ZuBRW7xnpiUfDscIVWUQIqEKjZHtSlSavW9oJprTF5IVXbwSKX4DYNhrgDDMEtlfujR/9+yHkw9DhGSgR0Ud/580YFEl9tMnbvmEXW/EOdyGzmcuDjfVG2kITHmQWI0THS8GU+cT+OzXt1c6XcuTJk+ekl56ebbsmKdF7BC9AYmgUR5g7m1xDG0YEYDTGTwMDPTzsRikIEHUxv/Z/spZGAaRgYrUCOM1c3CoCpCbPFG7a/dOqbsqSdSX5eZv1tSUMj6r+imBbobWQ56vypP3bYAuRPMdolCUnog4QV+cA3t86r/TjjSoVsvRSLWbYQowc8xrKbm9AZeUwfuat1ry1uOaXuOpsqhCAGFJrL4AAD43a0oKWoZjkuswx1pqASB+J6sjJB5qOWZFSBNibrSS9CB1CqbkqbNu3pvKWxx68ykd37nh0aMKJmoidueO3ZqH2qLNONYrGMes+S6nY7B352c+8xl1LDIoMdrZxwBgUUwMNYj3HKeiM3QUYowYPjT1l+s8bdpZcp2Xpwe1nwFEL10LZUWoIGoBEnBkaZPJz40KbOlcq+W4zOdQfH8fi989d+ZjZCDEQPo8tZWBZlBw7SdPmuy4FMFBzuV31CKJgD0UOeczdOjevack1wBtAneeJJqmdBRCYMU20om8daROTU2NbhmPrLNq0x8Rd6s0lZAyIWmRUBkgjAPp0rxTmHNFHSI5CTuQLmTPT3VHKEEaQt4b2RmoOfqC8c59kI42T7B3zbwKGIveZlQVfidmBUoBFrlhTFDDd22tTdY0UP3N5XdO6dBZOIplWATH9su9JjCHCAc42AmRYSA9rgYQER80eKAT9GtlnP761/d7QpabY8BaFalOG4Ps4FIQBruDDjCfBTHOPnuG5rV6p0ce+4UekxvbTNP0dgPEn+xB0rlSl4IOcRBu1p+BQ485UYX+xMeoxV8AOjWqLaH+QlpQg1lRpyC9iAXd+MEPeUsgHs70+qIFfhgnKgiCL1myJHVTyk6jppUmaUKbpWpMfI8YMTpdJI/5scefkjqslodYZxoSehmumBjL6XkwOtI820Dh+BCYxBaKTAfTVzQrE2Bk5BmY2K4EjAHdM888ky6+6GLt8nyacuJ1D8XMmBf1/KD6h1GewcL5jAE995IyUxWisXI7NjmJYzBw7HuP6UIsa5LmKZniUePUDLVD0rHTKJjOlLcEFg2g87izPDCJAOEuxS/I17ENJBca7w5RzgYdI5WgRzovw7dX6SarlYU4rmacQxA/0MYdTFZmLsE9Fb+4kww0nd+u5ViDBisHve8kp4ScIWn11NPPSSJuzmPvwY9SSCm+GEDgxrLD7/mc0mcOFdwXvx4LKt/A0iLI4692tQFbPKiJyyEsD2UaJnvpdGUYXHbp5QqQnpLu/cXP0/YdpMzUaX5yaxqiCfF587QOUvEt+l1Z2UfxrbPSYtFSY+Y5vLlaLMGKm2EKnPKMHp52gclAYBRpiXRhYtuDLyO6Ve3pqvALwMvMyO/R9Ag1sBcYYQ1SaXh2Io4Sk+GYJIAWSnF+yRFBHap/2F2EdvgcajBCHPQZ6eZFIppa2q25ULIjJk+cbFA3yzMkAaBCHu1blf8ALDpII8n98ZNMRbBsYzBYSB+yJzH8+ki9rdX8EWJ5zNjqdNrU082pcAQRayZMeWAkcS6PL5yCDpfaI0UGG4DpB3KYxow5Q52o0Pzf1Wm3IshsT1QwUWnQPdjHgKTgFR0L/MR7ARGdG/E0X9e591C4qCcfRiohET1w+o0/R9g4pnpQ0zNmnO2J19fmvKJFtAvSTR/7uLZi/IwegnCXvV7AUik1+fqSpXrG4NnOPCgXbUg6POvsM5WZ+bINeVTjzl07/ACokRqszZs2ONerorsA1VWAUaM6Qihh/3m+FYmr3yzZxOBMTjMVREFyzpkzR/uOft73RdPUKYWHTFSmdghtUOgHNh8l224EW9EYtpuKPy8EEeB6yy5EIiM9z1XEfbjmHjH0GzXtBfN0MHPUmf8/ZkqHxZzs0fSNb/wP7W01R1MSh2S4tXneCr3NDDkqDW5hAOAI8oCY+9u8eaMJ20OdYFacVS1ztUYOQ5WpCiY/zS2FaHA0WH80ulu3LkoDOc2q8DxFsR977AlPaucCMQ2WEE8dPdCgZxsJdgQvpff4GOf6h3x5J4lV1GT7THXH5VYKLp29QGyk6dPPUkbD2TLKz/EjUXhML5voYswu11bd9IkBqbJx2y7unmSp00UqpK/Ux6pVK1ODbFSkAHlS2Dk1Y2ucWoOG8D0FGhyJUNABKj7D0HYeREDblz47smozs+F1f+QjH1XwdogSA5bp9zZPd0ETYmVIQ88XlriMeKLsKc5Uu01ivuhFO0iZof1I48myL6+55jqHldp1TaWybQfLZuxsj7pJRSkBC4MNPf2Nb/yTQLLJaRp4GBiEqCdycnrIIAVkuLWAC07AwCQtBVuL+S6CdX11PoYiy8axU/AkKDbSbTCGXUAfuMew4UN0TlW6UDndzK099ugThX2Rm0mP9eKfMRIfzC0FaArYxAVQJ1AW3/mcKcbVvq6ouzjPg1O6js9qr1URrSTk0CpVt14LDhZ4TvSSSy5Tf5IXO7BUfc2a1cpJO+h+Y4Og+sdrLpHtvbGZKgSMPRrkdes3SApEmhEPUxg1aqSYsafTjgAYAApjOjw6pCVAA9huczTNbaUfOEa5oLrY3Pfss87yiZu1oQjbKvHwcwKrVZXal0t9ssYotAf38sS9rgC4/Ia0RJDgSR6ULThowOD0wRs/5AUd3dSvpqYGaSjlwrGApUTIUjP8oeQVkvryL//yTSeGIUa7an9OKqySjeDH5apzHpCC0BjuSKb+srNoMEFDwEYO0CuzXjZ3Ip5xfRlkx6n4ywaxxGzmRFI7sNvGK69qsVJenIBWameWMNgSwa38VByNs1R/zBUWUstHqSFqARw2iPXVxPMrc31UESqvUKXFzY01PCV1m2mVz/7VX6WvfuU29/HBmQ/ISZmhyen9nkqZPm26z2MyfZdAwpza8uWrDExoh5F7urICqqp6qK99rR6R+Hh0pDAj1RlQVJ5jVBpgaI3RDRhw+bGXeO4h/aA/HA+vLJgFcG7YsMFTOTzT8KM3fdSrjNgWiUwLpBfTaEghgE+d3CuYMIKjCA3yvNjXAvXeX+26UYFvJBYOG6AaMZJUcrz8zJ1Bw87/G1jkfT+gR5AQC0HEM0zEpMiKdFylBIiYY8qBuKyjARaSjILe36AI89q1qx29rVSaSR40u7/6C4FBwFEPrlQ+D4Q/c/qZnj9bKkchCraNzsb7ELEd71KJYwEOCM/xzGWe52JAVDJX4unF9eH1xaiE6Hdw1IySIRj100DaadWjRnIK0uD11xc5i/Tmmz+RmjRxTnYpgCIViLhUOZvlqk/kZtXtrUvLlWlwUAPKwS76bYxWvpyiRELsHtJpUGtbFHqgD9CbwSbPKaLZRR8MtAAbYMrS1sJL7eIaM47ugX3Mcx8xL5CaH/vYTdqs7mY7WiQwEucCzKwl5D7YiyQXxhyvYm+SQCwgoQ8Ec9le6ZprrpfNNtUhh0bZwgMH9NNsgxw1GPV3FBvvNIY5J2IsqEQSw2iYdbLc0UB1qAZzvTpKZxw+oBU6SIIbHIAuz3umc5wOM0jUYXtIDQr1gohXirAyHWhif00wL1L+EwPnoqoJKDK3xm22SUrgSAxS2wAvqnezEt6Ij7EvO0YpQMczQsVASDIxV69ek6rHjfOW3EwVMdm7RSritNNOV+rNxtRLx/B2CeIy8PS9LwFetZcdmKEBntwpkyebYx9/7LF0geZFr7n2OknmVxRKuDCtW7vW+3V505JmJoG1+FRrFnsrywHDnMGiVCmIihf92vwlThbEpiSVBs+Y61kdQxwLKdVaLkmilGE2rjPd/ApJzWfuAZGgBerXJBOhGEu+o/pwmj7xiZv9/qCezLGnW636188aiaRE6iGEAC0NWJXsCZL+jD05dky1QMXks56LPVxZJkrywzb8faUcIGFkb9woDw5DWrocmwgjzzdzKAcwyNhGGOgYgKITnnXXoNNJjqEKGRCCg451aQGok9U4n0v1Chc3AMdxvEu8JPLNn1y12sSzVNIfwdbzz/+AsiL2pTPPOluD+mi6/obrbetBvBUS0zU1NbYHiO+glhcvWZTO11bXTPLygPC+snEuVHxn3vy53n5xjLiQfd7JKSI2RaNwMAAWIGbAV6xYbiaborAC4RHU0l7Zj6sFIPZTgF6frPmUbExyyLXNt7jZLTZdIHl72i4ptmP3XmeEokZwy7sK/KOVFNhTG8pVqA9kibLXOyuERmiJFaCv77TeMQaP6RboH/UGHSPrgLYDrPg9pnzYRYYALaEgCqnJN954gxhpqjd6mzPnNadsY9taIjO69jAr7IQgOceNn+BQCBqrrU058V0qtJ6gRsb60HcEKu5rYGFk82609u5lu8jeiQaLmxtgMp4d69DnLK1aJXpRkxk2qEM21YBbGoVw9H8YnUy0FlkPooyvl62AO4v6YpsivBIGIeaz1DKdQ+oHq2SekDS9RVNFUyWZcCKaNC2xSrGyi7R9JHYcm7KNHzc+ja2uNkj2iag8XWzatGlSVWcaUIh1T3Oo3tHKwli8ZLHXBTqHjOIRi3lBsgTYDK1GdSK5yQpdJ4nnZWLy3mAQgpNMMKO2AESOmIcNyTIqZaEqvXnN2nXa331GGiiaEM4YofBCP0nEAwdZ4cMyqnZnPYzWIlu2FketovpylgL0j5z0Qg26mdisoUm4H/2yVlGhr9ARuzVLIcaBiW+Cu1ddeaUciPVep8hmeY2S1i0aG+zlShbGKP8f7x+g9ZYZM1y2IPl2OBi5Pt/o95RyiMV2hA7nq8HegIKLkEQCWnBKprtWdihQaIMx/wCsMChVymTw+eYiRkguth+KmXNsteCQuJTjqJaeSouZMHGC8rg32ysKoKoKVempCy0kJUuRFqCqMIr3SeL0l65HymKQMm0EYAA9oIA4SCZSVgiF0OZly5fJ5viY1Rae7rz58zQ9o4WtMkTJN2JilX7RF9Q5Ri9qgvwjpC9B4DZFydljgsGDeRgAItNIuVWEG9TmsD1gnFavXGKTN+J+pDbDmOzoTIr164vZlyHuwYYlSH3ce0AE2LsJKNTRTenXtAvgwOzQsEnq1mpXoKK9BFbpPwXAY8CfrTjam4HA2I7QgpERUsfcA6bkRcgI+8xzfwIpq64wB1Chb7dYwjf7HaUcbgG5WTJhK+V5N1Y3O95kEDCpGdFZOsGxUFkABRsKdRiiNYxNxb9EfBu/WroFSLJhTXsgGoH/PuJ2ALZs+dIgDsBUoX6yImo01/bpT3/a+zFgG7A5Ge8XXniRpFOtFzRwBcYmaxU3yS6qrh5nA5s43LPPPuediAkHsG036/yIy2BgExoBIMOUV4Xtw3QLx6efOd2ZnqQ/0xymtNj1pVoSkWtO0Wfiecw2oE57yA5iSgdmdAxKdGCqBMCiathBGiYFCNgzgwcN9BI4Yn7YfYAXpoIhUFGEMxzq0NUACm2SsxWCOLqV6Ml9yI6I/K2QvISJmDecMkUGt4DEy0vdBFoHR03cyCYhjMSL4rEsxvXNgIyLju//cmwVJ+kXiKczgEBdsgRQj9wBgGOvRH9ZPNMAOg5IsJVQC3AVl3GNXVpxO5898SzcWYLpGjrB7iqO+UjSkZ1ZCmnoHu1SEYQsmEdjQNjsA6MRQ5trn3rySatX1DeF/dEJ0PLbS3qYwAIRF0l1VP1jygjJ9cJzz9m7aXE7yxRX2m1p4lUozL0RE1LXGVw4mBAKgwBIZu+blapratJ5559v+wy3HdVCH+fMedVL/zm3w9Zqtx24X47EBjkJp8t7zItBh0h6dVWfJOJ9rF6LUrGtemrVNUzmyWLRyJJK/XNcSzVntW266jjvlMNaIe7VSCqc+8Mf/ig9+cRTmiLrY/APHTrEDylgLSLmAaujUHWdC+NyMgCV6yzPOtoLICRZ7IKrAAjnR+uGUjLmHoNDAwewkEp0DGkBkrKojhhJzBRFqKKYpec0PBzeMUYVFSZs0VsbbbS0skpFno3v5TcDmDawNwREdcf540cVQJDvzXdA3apsTi4mzGFJhrTUb3A81zJIR2GgTESBFyZqapc3rPABRjoDCqNZgtMWBlUeHuVK2ScztGCTawg8QrstWzYprecpn29zghPph7ioWcxIO1m2jyRBQnEOA85sAzEpovB7dE/UkfeZYOGDqjAzQmu9QpKQBRpMyX3DGmm3ncckPiEj2oCxTnhh3fq1llLs5gPTMd3zq1/9RivFx6arr7laAd6LbZcyD/helC5IDBqTRS0AoSPmkqJTdM72VgEsuJ3fORe7wecX4PJ3z9sE9+RgHNSC6Ayyi85jtp6l23hp2DEBHn6MAcpcBCG53gT3q+P3OBJADInK9SAzAJgHOgMyBi0Gizb7ZdiFt5vd+JASVBP1+A5WcyaLy9atm7X36i+UBiNJaSDCAPFbbmxjY1M6pPiPQzPQUf0nXoRkYlD7auErTIY7T6+yjYu0tP1UMC/1GmyuOPrL79hk4QSEd4cEJGuiUrHFJk0fYSORSoNjAIjRDD/4/l3p//rH/5J+8tOfWsoDyJNdyjFk8SAIjqI6PPDuRBjlMY+mLgtImXvooAdbxSIZySACILrhUpY4MSBkCThTQP8cqBQQqTvbc/qUKnTdYZbn+08FaZZHzgQsCvVBAAM+jmUS8+2Ya3SRAcEJahsgpp4uUtfB/VmdB/NwbpzKVkI8kCmuN1Dpt9sNCMM5wbZbunSpHg33rDbc2Ba0Ups7MgcECt3QZoJqaxPTNMje6yaJozu7fvbSqlUQNXeVbSkj7ToAZAalY/RbJzEueIIY6mZ+pKPawyqlEAbhPSIgmA2gYsYTmnEd5/K5q453kcO0Q14v26fPfmV2+uKXvui8MS+oOEmlvKcClNOmneFdS9DtzILT0GKYw3jXzWyYq6cmnnjcQMG2YuAswcL9zaAxUHQc4HEeg5Lzx3nH23PGpDqN8QqBkXQIO4Op+I83E5hDgErfDA63I37LGKKSkoQpLvJ3QCEAuw6/+It67AmhV1SQUtTNoHJd/k5fy3TsWQFpnlNe5KrLoCe5z/2lHbkR0IP61RGa0CxbjHrYsoll+T5X/W9SzJBFrEgYisM9ACa3i5xzNMTi+j4AACAASURBVIKYlHV7pM9AI9u/Qm10L/7vYFQYPa6jv0hflmox54f6tddb0MEZDRrTZcuXp3/6xv9MX/ji5/WIvo9YjZ6M0gVPgUlU0l2IX7UoRkRMJnuGdC46E7dz5/RftsWKNGoPHh30YkwTFyLoWhHEEgEO1AuKYJtBbAKG5YXRzDkx3B33KUGquF/Umv8P4KLKMggyqODO/NkqSveyrUjjVbg3r+hbMT0Ut/V1AY3cjgArfV6pwOmc117xXCG7Luf6fE3xCrroGv3BTM1SRyy3BzCRYy71Jvr0xzayRIkIuqWLPfAC3IBM9wxaU5+Yyn2IdkWWAl9iVoOjXAvtGUunJwmEhB8IxxBWckIldiQOjyoCaEhofv/ud+9Iv/zlL33eySjlEPg0RZg/IG+HmAZxIgxJAEeCGBOa2D9WQ2oM53vQkFLyliAYA0dognd216Me7AYhSR1EdKPCCOpFHrasZBME5iNiDvGiqF59DBsNiZKhFffgm+HnaQ6ag22HIxDXW6IVdQF4JIeBpWOcEc1GvXnYC+Iz8SuJSou4tgCIg8H6nufiQvX47m4q5+bzI7OVS8OJcTsNgoAoEoPtkZBeeHYNBJbFXNAUelKlmdfdx94p6OFbhWZw2y2pghHKteonpGVMKEd7gol4mkfQItoU6hw7TvPAohfVY85YQkJD0zylO79/p8MoxPuw9U6kWAcMVdbjdddfp3TbRZ7RJiaE5MmGI5LHBFXvnHBfcBWN8+B5qRArdclkyNIi1CMk4sXAsY0PhLGU03WoUXLArI6YDI3h9X2gqUGrzw578HJNUXwMszsf9zXUbwy7fp+PLaIDoY79Q/HgKJ1tUIZk9dWqg3tiCvBDZiIGMEunkIAxYEVLOgDp+8edQ+JHHpTTUtRpQEpa0OHG5lSvuBULG/yb2mhDXPdH9RW8Ee2nPjWbgCgSFkYM6RuGvKVa0T4+o+JQf7yXSEDdhQTrIhTRB75LqlhoYBfzXUIzff+O73nLzgsvurCgbUHw43wzsAAKT36/8sornJG4SXEXgpOE+JFc5V2j00gWGpBn3/NA4jYjVpmzI/LtwYQsplAHMDIGPM2jDpIjXykXfPqZ5yg+dDHIK7ATg2x46CLaFxmCrs6AyMCi/QEu+lEMLCDjGobZWKTeqMscqsEpFTeqU/H5vtL1BjwBJIgEhDCWPiJp4sSSxOXcfNzVcr0uW7TwNamY/R5wUmyY1GZRigdV4KJOaBpt5V7cKiSSgaMXuiFsPeJXEWmHmS3x3Mo4H1uNeVK8TI5aEOicGImgFSD12Oi41TO3VF0UUst/9rOfeXt0Nm55tyWsVl3N9ALPLV67do0j28w34V0wOZwT8eE4ezpwjoiW1R+GIsZhBPBCQniw6ZmpRMsV4IOAttm0MqXpiOom6tyQxteMkxTDGwsgxFj74gKcUUVRW/TVdABA8TX/Hx5rENrHdJ4HJGp3feyU5x9ULKV8LN5jcDvu5yp8KucArPgtgzmYJ1SZu5zr0RVIZGJieG4wHlsMoA0OK3WFCD+gQj2xqRyFkA6T3ki7DJhgothJOUJCOERkJkha+y9ijll70E7HFyG56QnNWaxCDn0wlNWuShYUBp6lJrHJctmRczxLwc6B+RpfcBylYLsgCBmCf/O3f6vZ+MlGLMhmKsVTO6rUHp4aSsedpQAR9RfLjcLzcWBVDeW8UAE6DULRKY0Q9gZZFOyLCaHYB8BRbtVHhxnEePE5CAAG0Lrc0niIcXA3OafzC7Adc8wX0EoKqjNCDnzLIOhcT9yg0719XUc7AsgeNbcz3gN0nevzZ7UFFYyJuVVB0n1accTTL9q1ASk5U8wNImE4BwAy1cQuerSfQec4N0GaMcDe8og1N26OpJUXQYSDFLSKdgPiDHyr+6L5HOOV69VN3DtLTBheRKYe1CjPqcbefrelBCwqoPHnn3de+j++/veWIhOKGXGmQEgA9HbW6AERDBtsgOa8SK8gwHpYAGFOjTRlr2krBt8d9gCUehe2hPQ6qSnkeqN+qTVOQbwXYNS9PJC8eCskQv5eVFw6nglnbi6ImC+O77mOqI/fYgDiBqX6jznOb6FusgrOTXLfSu3rAJfPL35CAm1XzKhWO+BtZTM3XaOhlW2pjTXkERK/4mR2bt62fatDBHzP7bVW4IjqMzOranLo2V8VeyyYsYO5AElmVOrI3jCfaW8ACEYr/minwRZxMOYo6eciJTUyLxuAzfR65+8lVZgvwaZigw9u9F//y3+VuooN9J3JqUbgzkIcvpdr+oEHC+2WTue5MrjP7AlOx6EGnbBXpbqa8UAgjDpB7Ka/NsMIr4SYTmwoFoNc2BJqkLFptIEoiN3BfdHeQhIZswVwi45EXR3HUQmWpLQD4Hi4uEOAK9RLpFDbi43hdG00waqGgSKl2oCKGuKEYuCLCft8b+7AIHdXzI6YV0W33mmgdgbcdGhfdEknACzqQ7pzbgYVdGN6JwK29I1G6B/SRQNBujgLVFodS4se0RbGLWdkZMDk3DqDB+AUNhf3RV2jZQw8xkfHGGMAjjq89NJLnXl6vOU/AIsKEKWsxkDMbtvGznC9lJvTR4skyD7UxCoPCZLRd1TGKDP3iHemIPAKbVBKWqPmHGjN7wxEATLUIhF/nWUuRBpGCXAwIEw+E7RlQIcPH+6kP/aH2rd3j9Y5Lk0zFHtjcF977VXHaijM1EO8s5QUCIheX7hQeUgT0htaokYyHVmRJCOuXLnSYh8n4jxJ6D2SmiznIk33PCUWQuQ9u/cocHymGWPx4teVHUH+ept3SJ6u+gmreKRVdLr3HWW5/YUXXuycq8zpLExlCRhpKCOHD9b9u1r9G+RqK6EdUEbohmOe11R99hAFVLw4ffB9SH3mmohRFSEbSz3WCATwaC9zsPX1ERNjnPK96BdTPNTN51YcHNXHGJWZ4TQimmrCO+EcMmRJHHw3wDpGFbr1RcFuYjdhOo6HiKexds0apwMTp8JGIikNjgNApHyQWstTGcirDhe/I/hojjCnxw3gd7wiuMsb4+aW8Lu+YG8sXvS6VS4iGe5BrSxdtlTL7md6xQx2ycIF8z0HNkhqmTxywiWvvvqKr8VYXqk8KZLa2JeKzTNeeOF5ZRtsMLBhHj4/9NCDqWbcOOdg/VZbXpNbtVpTXCE9yJxYp/bsdVjmldmvaDpniQeXPvFHFP7hhx9OL8962anRcHwItTLTokGhBXYZZoMQCmlKR0mNUR2RnRFJjcyrmhmRzJCBl/4DLFmiZDUfnnmoQNtMRQlpE/GpTHPbYQUgvRW5GseLcBJ2NPsvwOzZUHfWr9qwWwkAS5cs9bXHW94WWExsMocIcskGbRJgbIiq40xHkI7CihQISw4XRGJzC6L2fAYQnBNpH8EBwZUYz9FQgMUA1dZqq0cWVHqgVERV6iBH6rJLL9NWRh9NazTQ2xXxRtpcc901zgCNeUoRhpCIpA+ptBdffKlXbr/08kt+RMhZWoXMXp08sgQVTq43keZNAhufAd30M890CjSrmwcq3Xn9+vUxqqCDxkgNT5gwUfntFzsvi7asX7vWWaUwAAt7x9RU2+FhEEJaodK1rk9MQzIjT8GA8WAOUq294ELX4oFzsx6akEb9cG0AImhk6QJVHAMsPusdEOS8N8fWQKBKB1j91d9Lv6ExVH9uo/fV18u16np7sAJ8eP1IyHLHNhnz4y1vqQqphDmjkco2bFXw02vR1C28OcAFGIhBxXNvYnkSIIJNyZcn56mhUVmJkmYQIGePEo7gujY9aQL31nNhEuX1UqU8daKq70Ab/apegI75SNpC1iUS7Y1VK7x2b/DAIVJzi7TCZYs5e6veiRQDcHKN/Eg5ARXVzOz9I48+4nz4s6XCyEtC+kLgWcoBJ3v2pptuMt24J/bfIbUFEFJ4wxl5+aVZktjrHIviQd2PP/GYB5bMUFTgtddemzYIaN4PVQY3dUGT2trdaaz2UB2hnQm7qHOYDls2b3Oa0AHta4oHFgsaKpy0F4jmzgIKeCqAgNq22a/vXlEuujrbVCEL7kU4KjzJYsqGGgQWGC7vCwGT64CBZTDhHEFs+ql7YQJhymTvHzqiGdBaZJMeT3lbYNFwEtmcIakbgFqyKjEEbQxWYMjGdAI63huEeLKUHWn0PBl16HBLpAWXlcXKaUIN2AJ0io7Qwb37FCxs5kFNu72vlGWE/uMdL3P5ihVpowK27EVAXhG/LFg4378vkBpEzGNHsXtwX4F67ry5ytAcpFU6E6Q+X1ZgUpvSamUwy8O7KxjL02BrpSLP0MQ7QJw4cXyaL1U7TCtmSAYkufD0M06Xbbnde7tDbMBcIy95hnLXnTyn+uwESJKt1a7KtXJc2CsLe4S9RJG+gJr7YJTzPOtKTfa3NB9R2GGHFlrssYMT9pUeq6JzUUmROhQDnNVSwLsAWaGSLIXUf7dBYIXueSywh7785S8bHE8qGXKNmAE1xzUglXqtCvkTiGJMsImFTJ3DdU2ElVQ3D8eCUQg7nDRg0RCMXWyto7IRkDaI3Bj4IpqrBuJRmJv0W5M+49k0KyebXU4iOIeYDqDwv0GjA3aDJZ3Y+rpFIni3NtYYO2aCDPxInyXrgsQ4wMFDgs7TyhvSl2/6+MclTfs47/zpZ57y8i+2oYZYI0eMcsLexdoAjjmvSMBrt5R58uknTVwWmbLQ4f77f5vGy65is7jFixZrWf+jTqvBzoLLsR0fenim1QErXphPBXDOHsALw8hVv1CNNTU1ps+zzz7jh4Mj9VBcO3ZsScOH9hcQSWZslhTXAoutO+yMwqyxW0yZ87MwK6AbUggJxn0BgdWi/hymAF+IbkClNiCVuS/AwWCnf9P1tC72b2Dc6Nt/+2//3dtUYpogHKzWNAYAkTFwAWiAlnFRXTg4BHKRcOy9wbK74y1vK7HoUPXYaq9Q3nRgk+s1l6gRmWM4wnk0FkBBKE8hkOmo83CJsc9yHr03plCnLH51HaKY59GwIcaOrZtT/anaTnLAUJ9DstpXvnKbb+plWjrGzswRNWf76zHp85/7goHqH/2K9mAE85lnv0SAsnAidAoq8/zzkapaeyfgMpBXXHmV1wra6NZ19sjarilCE2zPGE+8YoV2UIE3RhmjW1s0dYWJ2rX6+MMBBH3m3D27tqeaUYNTr+7M88m2E33WK4+eNuzQ5rw4Luy+TDvIKkCCk06UwQSwvNbAfQyVDH2hN+YIoLJpIhBmO4rUY0DFPXhaGHFJVhyhLlnsQnaD02dUKVYcsi9AG1rEpoiBqhRuMSkSDLv5eMvbAouKqpRdigrYsH6D7SSmZBhoeyGoQww/vdNEMiLZZhvQeC8lvZMhyeYgSBWCqNDHel7XMSlrKGiAdu+uTcP1sMqtm9enKQOkZgpCIjl8P30P4Y8Yp2XBvY5EA1KV8Fw4jkfFfB4xL5hAGRq6h8W/XnkAWInimlQ5dTAY/p0bCjBxn4hSR/ysaJR+z86HpUecqHvGfClfuTceaYUGkievsp8VTylDrWzTBnVHNAlNKjE0wJblGm8RpXYy6MG4wSS2h2BC/aH2yV+DcLQVgEWf4jsAZTl9zkzgWocsiv5Tb7O+t0nFmTaoRXXXj5pxt8VUxCmtBiM0wQ+ce7wlRuVtrgIMPPtPLXMwE+7mpZ56ID0FoEG01AJsNFKcqdMNHvQ3K06IVeXpmuBG/a5rMihq9/FI3HqFMmQoHiZXnQZRCfVosN2x/Aoi0lnasGbt2mIRRcc1bHOIXRYEoZ6iLlcYn/mN0AChDGyhZQpjIP6ZK2WVC3EvHhuCSgQQeakU9dIXCtwdNA8Q8BkAQJOdO7RX1uABtk3IuSKDYNXq1ZLqWpEj6Y5nivri1SIDnvtAG9NY76EGo732/kRfAO37qQsxZRYLSUxT/TBy5CitSJrotlHwOmmvGQOQial1qs/lzyurinEj05d0JBf9Hm2RStYYvpsUmt8psRCHEydOtD3AvgpGMxwk+UGeVnaPIQbqqrWFkIQaLAK06PwchvATDJREKA3pDMb2FlguBDFv7IK3SwHJIQP7pp1bNqTxp043J0HByGmKAYQo+uTBo5Bw95tf/9IrT1hUeeQI820K3uoeL2iLocsuv9zGNCqHtmIwI3kxcBF069ev04A2+/enn3rSwdH5CpSyDgDDnZDAFVdckeYJfAQ9WUbF4g62HTeILNlipKEJzWJA6usPiKHq07BBeFLATA8mVxB2xcrVDo0c1lPJMB3IRYd2B0hbJsouCY3tw+i3aT6xTRv5l5uZs1TGFpKk4XfVHGGAABWf2RAO8yUX4oPr1EekD8Y5NHDgWmByUFT18BderAQGMw7qTxe8Q0fjZQZonI/XcOf+vxNYnFBTU+MdR3iAkZFevJjng5D2MnQeBOkhVYhn1dYcdgDnsMyIyDoxJo8GXSk65EHRZ6YotsnmGC4OX79qaRo+dlzqUdk3sGcqQUYuD1HNgDYKRK/Mesmro5le4l4vKvi5desWq2T2RHhI+xUMU9QeAHJf1vKxeOPjN9/sh4rjZX5AYGKJFAY6Xt20M6bJ+ztHu/f93AFXov+sB2BHw6HaDwq7JUsILAOAE69QgUiVfbU79ci6CjGWbMO22Cdh8VItZdtzUJHt7lb9PJgco53z8Q6hY6WCzACM+UEGX7m4rhowUBxqCBLacEfaMPi0h3LueWwbEM4PYGGLJcIbLMBltTNnIany+dQd4Az4s3NgHhtOZnzYBccbmBxnKWTf219VXV3t5dk0lDAC77wQ7dmQBDhwN2426g+pRqMImGITkINEB+Bqqwr9ZsPTuoRMRq3KbdCTGkTwA/v0jMAVixXzgWiAMLctPvMdDkaNrdY0ChuMkbeNTcP+XJdddql2y9vlZe8f+tCHJGE0yHom4UVKXJs6dYqM/lFeGkYog3q8kZj/YsqEVckk47UqlYWHYy5evCjVyHuksNQLoIaUMk90DBI9k2So1zxg85FD2gKqn9Qc6xMb9eTWvWmJtjSSKLDEYyErNh0SiuVh0BOaESdklTNSgn0UOBZ0Cq/QjfA9Yw6S322P6QChoenasSeDBrA+/9zzJXpzkReTqIqIIWqM4Az9cxC2ACy3aPcCmAgmUy+hnOMtv1diYWdNl6rhSQxwFTcM0YxYRsjLfpIIhdiHpVZsIApQfKeTWourz/F8F6QWny3l9M65cCBgxA7YskNGvJ5IsWX1Ci1pr04DhkrlqEc2PqFp8d6qiwYqVvWVr97m/bzIkGAzixoxwFPPPONHnxGu4MFISJkemkpB/REnouDKb9y00ft/slqb6Dtzg4P1UCPUB9KKXfvwPM+QBJumxabYXNgsqPdcaHsGGUKF2YkdUuWVvbBLWPGi9Y0C6aIlK/XcHaUfiT6sPMepIXaFZMKIp1/YMqhJ6mPhBZ4o7bYBLoaNKReFIAReMkis1kTHbOxfdtll2gNjeKltrPxm26X8tFZkEnVDczN5wbD2msXE1IXTYQlW/EioAebyuB9n+b3AoiEQmblAloEDJlKI7e5iTxWeCff1kiUBxhxBJ9R4jHeICDeSNFjKhypAYqAVBmu91uCtVZxnoBIAV7w+N513ab/UrRfr7sRYnpDVB31hILD/eGTakMGaLJdXA5efq8WkeEU8nAgiolZuuOFGX8Tn4cNHWapAU9qB7UCb2U7oi1/6ktvJddhcABGvk52SAWJ+Bg4iA7oDqjw4prn6sU9TUywe4ZFzLa1sZ9Sc1m/emmbP0ePe6nmqrHacFki8nbekB5uh8R3GygCBruzSQzuOyntElOBxU5Bs7fqdaD10z9KKdudHzHEeoHtt9qtWsT0Uzsjg591OgMYnmBTKxljF44yxn1XUMfwTnCi28AxB4ia84/J7gUUDICr7Qy1csNANQuW1F64+XAeVOU6jvOOcCrEkwOCtExWtbjjc4M/sSENDszFpqeXO4WGWpe176tIm7SEPWFYPGJSmnH2BRExsaEa9eVABGZ9xKLoIVAw4nNVX2zDmQptQORAPAAFGiIsUYPcZ7g3H4pkxFeQwg1SDdyjUB+r3c25AkTe1DkDF9wxQes0TTWsl9TZ7tz5WLKNjajUhvuD1ZWIqrXSWN0iglvoIQKIi2VsCaQzoHRgV2FnEC8i8mEMj26JthJy90K79G9S/Mp1LkDZLOY6RoElgNAc89yiyz3pB+svvkemrsdF1MEs74QaEgP6gGw6Nw0BqA/USbqD/qEHoxLHjLb/XxqJCjDf2LDDHQHk1xnaB7pf3bKDzhCRyifCCBlHHiM57akRzcIh0PBK+dxURYQ0Gyl1EzOvchSveSDtlAy1d8GratGqxxjsbqTGw5jIDmOZHp6Pv2G+cA9CjJfkzMPB94ET9mImVI9nUyY+xHjAITt05tGAYcdglPse9NHtQr+2Ndm0WIPU4kArmONvSgUMNaeny1cqe2Oo6UIFIpl4CFrYmO9EwmNhZBFlDKnGDeAEK+uB5RBn63nJTV0YqM2owHqYEA7MF91Bt7M8FAHKZlqktX7FSVcU4USf9LDGxzsmwClpGOIj+R0CZgHejHRVSlt5NeUfAws7iJtgtRJS9Pk2NaxUI4KosKnMgzvwKR8QoOpEPLiXyDNFRWxAGD8YTpwyowEY9GM5L5JavWLsp1UlVzH/1pbRtvZ6xDCk6DSzAAOQZQI7H+L68qwX+AbCgGsQMYEEVsKKIEqAI4HvxZnF9Dm9wOecgEeP8AD+fbej6A3U3pt07N6p9LZJWvfW9yUHhtRu26Klgy9Wfo7YBCbkwzYQdxQYgeM/019tuYt/Qf2wZ3RgGZXKeG3lBcNFJz+tBK33PWxcM195il8m+ivwwpsga0tNPP10yW2ijx6cgHv1kbHIHTAdUowiVGS/ObfeTVN+N4U7dv1cVmn7qCDchprVg/gI3tKyMeafgOAiDmI1AqABQEAL6Myxwpo11HScwSFwMb7GJDuqYxbI610Wcy/bfzfLIFi5dITtHcSCJ59deeCZdKCAOHzNO5jASL8gStAqAvaw0Gdq3es2adMZp0wxetjgk94lBHCo7CuLvUmYDD5zEuAbc5Fax4wyReOZGDSb1hx2hMaAbFWy1c+E+h9Rzp9yvprRz2watF1RmRhVGvV2stF2hk1mz58lTBrCaTK/da0mFIY1kP6g0ZAr1Y7+hivyu7yUVpYbQDmhsaUvtMLON9thsjfYwH8gug6GYFZtbt865a84UBZPcqGAEB7EBZlFXZpz4Lk9dsTMkG/fh4eiM+btRg9zyHQGLE/G6mNydryXm7rxaHR2Ve4w3UyDeDaHxHohgFM5jcNkVjgcGsD+U+0s9OhdC0TkITXoLXuVReVgbd+71SmnU6avPPpZmXHJVGj1eMwFqdonndBMkEvuN8owanAQ2twfMSEdAjxrC1gI4uPcbNmywBzhu3HirFvrFNopwOtNPZMSycyDXsGEJ2RPseGwJTLv1zjzawf3sQqxlctolBklIyGO/ZhBeeHF22rolduZjH1PUGNFraMTKJ2eDiGaks9gbBLgaUNJhIFoeTDRDlmTYq3n9X5ZyOB9+7J4kIYW+ACr6a1tKf9hXlnL63fXqBd0zk8DI1h5iQhwtX6P28eiUsdqZ5t0C6x2pQhqN50EuPACz+oIVXSByLN02u7tpED9UFw3jFVFfpE2Z3XYS3uAqVu3ayERc60qyLDEaGfRevXqnHXu0yGDv/rRbHtfcF55MbyyerymQ2AIALoVgEH+UjMxLpRJOkXuMO47DsEvpzRCf/UP3itjE4ZiTY2KdnX9R0Q2SoGTDYgdOmTLVz6yG0Ozgt1QxMmwX7wuq+wSRIbzWBu7T01EVs+qu7YgqNHHMRO3WbTuV4zVPCYCbbWADKpwUbxWkfvNcIQYfIEFPMjdJN6Lydqs+AsBybCySpe6QzsWqIrxHpn1iY5CYdGbFMtIqF7J771cGLCD18xAFXBirQFXMiKAKi/EDYBRH+3UScS7Gh3dy3d9NxD235R1LLIiKaCTXnJ2DTWkXhpa3UBMebDNGHPcb3KjOMBdHbAnOhoOZ2Q9pJbtCHA9Y7XZbIlgGOo1mR+0BczO4Xblwtga0Lk2aNiNV9hvkZjAYgAJ1RqyMBxRh11x++RXm3hu1+T1ghgNRB7jq7LmJ3cf0BfuEVtfUeIFmtoPYsblbtysc15owITJDUUgNkmb763ZKIirdWGOGzdKgsMDGLTv0zMKVitKvUz/JL6srbCiYRjvqCMCsZELtdff0jYxyhRWQ1Ww8xxBndcaUGCEdjP4gYzAvNDV91F+SMG+44QZvYUSBUdlsbdfOXfY8sX2RVoCmogyNgsdO0qbsOd3J7K9/SHbOzZ4g57EzNTZ1juL7BsdZ3jGwqBfv8JprrtGTI5S7pMYU2PEtI9c6OMCQ0n80EmJ44lolDyrEOaDo99DB7FEaoPMJKlyL9Cor1AOVVHTXo2/1kCBENNmpZev0cIIDAsrk09LocVr/WKFHuCkREGKRiMcLiUdBjXVWYbQnPFva1kXnjUs1AlUcb/dWkrQbkLM4Y+rU030+DyU6dHCv8sa2ihnIpyJvKtKxN2zaml58ea4i8zvtfLDlJD3xvqY6mYAnaTHcI+YEY31g0BBGREox2HzGZyQEE5Ikto6MGQ+YMatOsl5R7bkw7fTQww+5Ljx2ipMydf8y7fPg3Z9FV+xc6keDYBNTHGpQYTxh/quuusIhjBMpxwUsbnTRRRelaYqZLFusPTdBvtVfUTpLKsChw7YR9MJ+wuZBbcJlB8W9pC8zX0bYAelBz8yVupBlZXzHKWAAqnr3S9uUt9VwZFU6Y9I4dEc6ovDFzm1bU83kqWmgHqHblTp81wgTUFcGDETraC9fcsgiCEo3sldkSakL+N6mQCcrlxsO1+l+2hPh6EHbI2UCzX7tfLxm3aY0+7UFmkbSiiWlGpMFQX+deKd2o0bZrohCDI+wAka6l28hPQROA537I7dYpe12Vi3HqwAAIABJREFUA+6wd9iJ2hKuiEuhOZiuQp1SUK8P6znVzHWSZAidaUPUEZrAS7x0jKzXzOB55GAizs19vvrqq53mdCLluIGF/XPrJz+Z/rvm5wJTGoaihRCSFlqvq9A5BifAxQx7TFnAKeQh4bHxQCM40Z1mIEVMP48YSuuzU541EHBhLwUu9ypm9Mqi5Wn6KRNT9Qjms5SHvm9XGjq6Og0bVaOpHm04KxUbUrJQz4CEP9UP8Si5zcStcjFh+TM3K3uysT41KlOBbAXsui7a6L6/MjAYmL1atbN42Rva/VgT1Lv2Ws2RtIj64MVdCICy57qBqP4hfQAVv+c98ukf+WuoQfLb3C63EboVCxzU95hbjOc+3nrrrbZDox9t2lh3cZo5c6alEZd6JkMvpJKZRXTkT8SVVx2GvBvoQ0W+l9qHbTrj3BnOFsl0KhHnOD8cN7DgEp54NVFPtloj1x4pQGfyoDkAqgMdDQZo8uLUQeDGeZ6ELRLt6uQlDUG9IZYhTNRoMGILYcO06AkNSCie79JXXiNr9V5duFRB1H1p/JhR8iSV4yQQ7FEqcF/tDTVkxNjUp//g1FNA5GGUcHtGEm3lHtn1yIODIYt32az8+yMN+w2o9jbSrPW0LrwuqeOGIwJPA5vVbtHjTN5Iq9awVzrAIz4X2amEDajrgB8tctD96CUgEd6gHUTXWa3kHHONLMvCdAsDS+LLfTZArK4iMxeaI60o7KdwxRVXuF4Kk+n33XdfsRoopAz9QELB4HwOSQxTRSo5vORMCd0Fs8MqWXVxDYtC3m1Q1A0qynEDi+uwX6674fq04d83GEDZvgJQ3m5HxyJyTHNJLVbulriOhufsUvKRmH9kUA71POTVPRQYFs4mou/kN9sbIrQJGdMcTLk0ahORVQqibt26XQ8OGJ3GVY9JA0TENkmVMi3yrKvV3hCSDiz7KpcE6yVV6ii36mVQc2C2RdkE7NdFCvWRI5r81YJSJEy7NrxtEgejouul3upk09Uq9LBuwyY9fGm1wM3yrQNO2sNu4uleFNrs/SgUEGVAASaGu50C3HqdC4ygGfaQ5+7ENEjpUF9EweGxSKcBVLYrddU555xtbUFaEAUAP/fss3pg1EzH2jxlY+nOZr4hoTkPZwBvDwPdE9BuQQgEGBaaNyvViekb5hyzxvFN3mV5V8AiAn/jjTd6FchmudSe11LrPG8ncDmCrIYDJIjVrEGiI0gfOgWxKawuIdzA8nxsDjw16rA6VJ1OlVVVDppqwJwxQP062F3nDhg0THN0dWmRVBIpNzV61NmIkUr4k33Gw4SQBq1aKUTAteJgbcGdsYYPb9ASwkwg+w/pqHa2tokxlKTYQihCANm0Z1/aJdtup4Kcm7X3AsFPtthubortsvOzrlHV2DqxKrvMk9hs6cQx+uKwg6QnjAeTOXQgOrElEQNJeAKa0XfTjHCMaGGDXb+T3vPVr96WqmuqCzWlHQa1xvLuu++Oa8QQhosITKoNIQtW2WS7KdQeAVKT0AVAkyHjZfZq0w16NAqe88ko7wpYNJbVKXiId915Z8FxSBM9dkyDCncwYHAUXNqq77wjcruyDTWfiZ2oY4QcUFPEnNjwq11Zk9TP+U3YCCIW3leb1CHTSXA5BITT8bqGKM7ENMYePf62tnZx6qtHpJBnPlTr+IZpf/NhQwalKoUO3CYRFOO5sV2ZB6qlC3OV2BZHY2K9EUBpnR4rv3crzMAD1Xdu174Ukkz7NLd3RHtaIYVgBp6Hk9U14MFoBwxIap5YgfHL7wDW3yWx3HYPrOWFxy/UPcAjoMncoKL9cmo4jh0K6LCvvvrVr6YZyjIJFaiYmED7s3t+pmS+lQ6zQA9Uredr1UbSjKkD5iIRsp2JXTFqhfrPuZxHO7JKZdX79ddfXwq2nii43hWwuCmEQ98/8fgTWlW8yRIrJFQIWiSX+CW4FbvDohk7CXWEemODfW2ZKOJ7KkN1stKZ1c8MHpOgEECsZBstc15MD4mrVQdLvax2xdVDh41UWspOrdvbJXdfkmar4jkKtlbpsXX9taksr95ajcyTuKifDU0sRXETdHP26dqvDdEO7GfXnLq0b788PGVkoLIBIEFDAo7Z3kHtkMDIEnrylhhU0oJ4Pg+DZS+uWz9H8AlyZvXCHhdkgHBP2zlqP1IKmmD7kOhH3ljeJh1a85xEnhnoYKoKgd2HFVpgO4CYBgqwAhqWtmVAI4lKNps1gXFtu4sPMSahrrHbTjTE4MYV5V0Di+snTZqUPqXN2m7/t3+LYJy9QjVchIF7Y8oGQzKWz2MroMbCvghuAYz83ktczXQMueE82g3J0iZ1g1FsVYJac5YDnEeuV0jFUJuaz5M6OyDVVauEul7K62IvB9Y51h9WBmcte1KpDl3Dxh98NvzRs6of6YoqaiTEwf3onE7AvqrqE8/YyeoJUAIm9rFiCgSbiT3USQDElgTwlsxIQxXJNwOIFeD0s0k5WpETlk0GCU0aozapcwJNoySUHo8sZqHgAfLK0zZIwHlz56Xv/vt3fX/baZLsPbRaPB4gSt/0x6IB/eZtEAqAUZ+36wRhMD7vKggJpoZONMTgyopyQsCiIdddd53n2FZJ38MdzPPBcQxAdnkdhmDE1BmOe22g+t2swYSmdPCIAnNEzes1NcKj1ph2gQD2YKwSEekFy6k+dsELN5qeRADT+0noHABVVaWl/hoc0lMcB5JKaReB25u5PyoJ3jXPBtAlFXv2iudWU6ODtLRXyEa9ew5S9XvBqkBA36uUzcDyf7pGnA6pRH0wFZvPAjpPzgtMMBuSAuOaumEImId7cD4mNOEJgI9xjpT+oKTUF77wBeed57JGK6//5f/9ptcg0D9sRWxaDHbSqbsqms+qIFQhNm2oxwiAWpKJPh4b3TfnxKF5TmMiW8dOVjkhYNGI6upqPWzxE+l//tM/mUDB/bGwk8FkEGkv6gSQ0CnSVGJAiziXzoH7iE73kdELZxNS6K1MSwhB7EWV+3NMrgbY4EyMTrxI3cD7KAAXUj2wayiENVBfnEfqCuBACmYP03NjEFztiszKALoByqQsXhM8ofOQuJVaJJGDm9zXoQP1E0lCB2EiGIpr6CvMEMa5nmjqrY8C1JgA4b3pMiUG1osBOB/Aci2g+trXvnbMQgaeJPatb/2rl6yRLeHkQNtVAo54zmEVUyBmOTxVBDOq0Aba1qS0Huxbwh6IyoGS7ARbmWo7meWEgYX4J/bxvJZb4frSOTqAjeS1iEIVkgyiZW7J9gZpGnAty8/hYG/EpukQPx9Gn4nRsGgW2oQHFaEMxByDYnXD4OkFoVBJgMoBwkISwIPYIag1vEoGDfB7SoPwhICDRMSLgsPheiarmbgGuCNk8zH3xiDh0lvU6mXVqu/c27MK9jBJcWEFeCyPZ4hR4TAWNhNA9TXqK+fijcKMeJK8Z1X0qU99Kn3pS1/yhH8urG381r/+a3pE2yVFGzA7SFOO0AJAzWEfaEdYBZqyMCLMB7zFMCUcalE7efzKzVqxRCT/ZJcTBhYNYhMOiLFAKTU8NhfgoAa8ZWEx8Ayg6GA1YJtLBc7BgM+FQcINB5RDNUXTs0e5ly/h0rdpdGxsIxlEFCShkwYFFgz6mEzVsHITFdt4gEj/6UlUHovsADAA3crZOlw1Yn/oegDB4LBws3VvTIO4HklX9gqlAu4J48AgqMRI9Y392kNQYLcw0Ysk5nyyBQg+sjaA1eKRGu1H1RKsFEPVKVyCV4k3iRf4VzLUP/e5zx0DKibC7/jud9M9P7/H0hUgU4JhY8M7QEPsjLZh5OcFLjZDsN9of/GR34j3ASjmHE+mbeWGqcQo5G/v8h3ikXAGuOzJqUAo5yAhTQQ0Cp8pDLAHx3ZHRNcZXI5FnvxRrwV01qU8Ox4pF+eF1COFxCpKfMeg5JSSUMURcLRLrfNAF54WUXPqQ1LxHgFMEdyqgmmkaA91MHih0mJhroEo28fn6HokAXNyJCwCG8DZVakOjqbrMwBkR2RAmYGWJ+JRjdSN6ifXi1AJ9BimsMk//MM/pNtuu+0YUO3evTN9/3t3GFjE81DjWa2zRwZOSyOAgnFRcQAfrw+kwzi6l20//U7foQd8hjPw5S9/OdXU1Pj+J7ucFIlFowDRLYoKL9E2jnNefc0dQU0CFkAD0QGC568KcGWgWU1CBw8wP4p4AsbWrVvkwitbQdmM7JOOOiNpLmI+sUCCe0PUVlZXi0A8vaFZlXBfp+ToGKA0MKPqALilHMCLuc0w41WH/pE9ykADADIpfT/XSTwonBJLTN2DwXQbqB+w63qkU97R2HEl7iuwwsesbOIJFazQwd6jfeS5/d3f/ad03rnne4OQXNi07fZ/+1a66wd3CahkdwooUEmBT2qjngCy+qD2WP2j7vQb6p7nQYoVLLDCDFE7BEZIfMstt3hqKDN96aYn6cNJAxbtIWr7la98xTvi1WqdHtMSpAPXH47UZMxwDb2JD5N4sPQFCZEng808+i9WorTL1iFdhnzy/srZkqsve4RMVIgIhQAsnIxnhCSxxPGgY08EQeFwV4sz4er1v17Ek7yIQedbkvh3HdPDtbt1jZgR59Ng/gChpRMxJ6kywh9IB+oLI173FcBRv6EMgEGoLEwAP5xJqn7/fpIOjzo6j43z2c9+1jvpxPwh3WqX17cpffv2b6ef3P0je7lZuZgxFeyEWcvbmMzGyyTNm36TLYGUKgLMkmQAB2cDhs0PemKfL55ae7IeyASJ3ly034apcNIKqumneg7ed0QUPqOOyNr0QGtQvMuMbgnBQ1J13N6gYmj1Oxxm5OjFoGAQDxg4WE+D1xpF2WV5HwbsHCShi8EWdTtZDimpehgoPFJ+h+j02A+VtFSLjAsf1yl5+0vXE9V5cBzzMh4JI8QUDEDhoGNzgJP7UIeu9TWWIjrDy8H0vGp5veQ70T8ejPWZz3zGsxd4raGim/zUCgz1u374g3SP6BitKjzNoo8wIhIYe49AL7To5pkNHBX1WZ1FymIOWMYBat2TF07EP//zPyvn6ir35b0qJ1Vi0UgMQcTsZm3ByEMiGR0i1s1NHln3A5vFeC4NXnSaQ/9fe+f+m2V5xvGH0hPlDGILLbSlxSiKG4PBdGPTuR90mwmJZou4JUO3RKfA4mHEGJ3LftDtL9hvJiZb5sSom5uZh4mbWdwwhgkoyuQgk6kIQ4HCazns87nu9ymlvKUH3lq6eJfS9/Ac7ue+v/d1vq47J/f5A4e8w6AVkFmUu7R1ueG3Pi7tUxEtwPUScJVOpYBGESRZJLGgxJ6KdCcufVQXB81+CIojRTYWjI2vkskgnRHwlp/wIthdLJIEnEAjzc9tPoMoDnnGZwdgH1NnIiaZz9va2sJjsXTp0qjxWuAZ3ti8md0gXqIgyctQe7cgfjuKCBdv6VXj3FiYRail18Un4ju9EIYX5a4dOxJjTB+U9RwjwX7TTTdFTN1QgspxKDuwvGiUK/z+jaGyW6k4txX5oC6S0BSL6zsGzNXud55MSxqf7/mkOHEOiuKK4bZuKq5MN44kBr3ymgdkT5oVwuUTE+Eqd2ATqNKFcgAn8IW8wn0FRQ5M58JfwSFrdXYrkGl8nYM+XDJodE6kVM9KfMpzQaU4NfyiQVXMWEYcoK+TcYqr4Fx51TcibV1q8yq1Sx9d80i4xbZu2xb9COrHuZbwTh1JoS4B3HADCuokpHtcUGQGJoFIjbUoe8IZQqAvjqvfa68aKi2wOHVdf4YEWE5Aa2trtmLFiggZeeH5P6Miq8pb6SHJWLkxMlhQAC6xKAdTIDrwkvvk/gm4ASZCmRlMre5jx1WF1d+9jt00XGE1dryKiU1hMaEwiBL5oN4bXsuwwkHu6/i+CKoiW/De0TjFibMVaVsSygGsfbVvhZCv0gFeSzBHwiuTr/aoEmBAnmUuTfQwlNia+SZePPnk77NfPPDziFAI2U8wcY082sHrKgIIVmVMn01TTNrSl1HkGZQ5lWMFt32VMskdtG0l1pyA6jWsoHPzzTefpHGmBx2a/4cEWDEZjIwREHfddVfw/bXPPidmYo6d3DRbSXjvogZxgGfzlxcnyLVeeSzeKAICQoPlD9GijFc3K2UfAr6RDkYQBGUrZrykspJckL6kn3R9j0mKgwCDEnCIyoB3DWXCD3J88aETGL3iM6mhkyZoIwrUcwMATiyJuUQ9mMMoy1tAQV1LNTZRXCS3Fel2+t0Tj2c/ve8+WDslHF0EAKMGESJ2WzO0mPchpDtWfA/ywjalwH+IiNRk3E3xWz5bUcLMCpzna59PgSs3mcyYMT0WuX06MabxSEPWhgxY9tgBF1z33vMTdmWYwXZlD0G2JelOlJOctKlEsRKcunxYDJJUKyIcGagIZINKNEIB7rzjDijAV9hI6LEIqnO1SxljK9yaqnBoKxALpsjHU4MSBMUmVQoYxYpPQryg4U4xIWkFJG3O72My7CvnJAMtdiAKfwgiA/3URKdQZ2L+/CWR3WLGkJVqJiISeN98MmVbL7741+yB++8PUCU3EtSXBZEbT0Me4nl1XeWLK2m4FbGgNI5ahqmL5dNl14BjGF4PxsJx8r3mHovFrV69miDBhZ8YqBzmIQWWN/BBW2e3Zrdh/LOMoSWCNm7YFIMmtUgyRVEAZzCS4dNVB2tgcGP1Agw9/lcSL2QIiTHZ2oDWUXpbQ6zsJdfELLxhbJQeAOOYjPeSyoS8ESCCFZLdDNEJ1iMoE0tMFEnvf0yUoOTevvZYP8kn02tZ4VALuv0Qozfc8L3o23giYbtHz3pm3nbs2M4G378kYXZ7ANWmoVJjq30INwwLQVDIrqU4snX/Rj8D4LiHiC8zHsueJtlTr0YSKTw3LVS11yrsY7dEbYc8tLlbd4b05ZADy947odazcuAtLmL+29NP/4ma6psj+kCSzzimyXe4QvBmUDExGH/tfjdXEd1orXarC9rMG7Ro7O23/yj71a9/QxXiYq4icpjX857uPOGEKYAfOqxvLrk6ZsMSWltboHKEF5N3aO0rY6vcqybOgwqFMx12lCc4JIt70ZUDRaiOIh1JthlDzJdlvs8huzrRj+jiSU0qYsTtU3/8A1b6VBo7j+2SpeYaXW7XM8QnIiO4iudWy775CbbLM7mY3J02mUySLCjC5QVeT4qna6h7yE3PPg3l+08EWPkDqLW52ZK5ftdce00AS2OqvxapV4bQuu62I7OaZ2UtLS1Z+5w5YXhVRsmFaa83hbCa67D0u8dNc1Mj7iFdN27YnWw3+hvDmQ210+6lM1jqoivl1ltvCcHf+xmiY/E299Qx02XdOjYl4BoeJwsSlIJeu5hNVqQbRQqaLOd8hzKRQoW6CNEpc7abCNk1jzzCM6TYdIVs2bvXE/xdEZ1SKKkPNw0tUzMBPyfMGSw8wKU86cIJ1qzGynGCzNQ5Kda3MLxqrB5sUY9THmCAH3yiwMr7JuUwcF+NKY8VTxVfEvmXhEdRDo7L5ZNTnosVvY2KwE88/gTUiOK51PuUlZhlbGEzy1SaD+h1k1M4GV3d5FNWam6jv0YQyKKt825K+QZMAAcOpiiEqgrS/+mLUQjKZGPct5pJ3UlJbctjJqWDJM+POyLTOlGP5Bft2d9/EJz32qbX4nmc+ASaJD96Hd+Hg56FENb8YNFFk0GcwxX5z3uoAUnVdW+576FsNWmk6bhFJF18hwDM+jPYerdn/wf6fliAlXfSQRZE/va/OcIZsei7AgRfI7lyikXTmPi1a/+CbWh9yB5SFJ3NZlzLcnLZQ+OgfsDuzX4o+EoZo8ofkzsOBUCrdgphPk5oS75Z5zGoAAGJeBO0pYWMRdP3F4GIamQ9mmYCzQqGx4QPj2MipgtK5b1C9kOhkUDqynIhRMSpNjnBpMLDMQFG5LoYASiTNSEOH9LEkbRaKd/iRZdkP7iR6oTFAIAkyfXs0dC/H1ZgDf7x2C4YuWbViluzc6gx6shGJUH+1ZH63jyrOXt27QtoapMiElVDrSzWyoQKsr2xB6v6WU35OLmFYxBbOskvHKXRFXllbE1FNg1/pZTk9a1vh0yUAytNeOiZJZuAsiy28pPUSZdQaItQJMFjAGAI7YAufKYcJ+D0Y2qTylsoIbL6oGzFzbKg0mqlAm4hpTKXXXc9z9kSbF6zRMqYKtmtIf1wBAKLNcjSrmFF15IYsR8Zq4oo0SlT67Mr2LrEbUZGYRX/8hcvya5myxPVeE0R/hVQp9uZ3bireljjzNpRGZVNs+mw4oNM2n9w/2jPr+OeR9Ea30Pt75xQnU0jJUtqaBKCW9h1N2l0nzUpp8pGWOz5ETAeG5GfLAqdx8fxErg2RpPpFPKSsp1+UMHGe1mdyLV8VLBFiFiI6iqKfOc2yucjv7o41CKN8FAJ0S42HG0EAgt2gdy0lS3mCsRYHUMYbptLgTBWsbHhy65fFhWQDyJ3zUHwF1Cp9c0U6qCCV39lSdb5/DPZYuLApgGAvVxnG/VDZTf1sOwPMV9cunJp1vy5BdkUQqFVKmSfmg16kwd168gyI+VNQEi5AE6yVZF1Q2KsVC+iZAGZaoKmBZURa5IKSBNabcE2FdahbMFGYX+6rqTIxuaHYVXWCEX1uOFqIxJYpujv2LqNKsXvZ5XIErUkTjjBu9/ZycSRrMpES03UQmNJ97Mp93yd8gG7qfLXQMGR7ftI24etTofSTX13VzYZyrMZWegL+PyaLrwoqE335jSWupsCvwpLCOjKYBwYGhyvBZh7FIUdTkoFSKRIYUPj+kaHeF1/w72lETegF6QqrpezR6+nR0Hges/Uvd561c9BGeRhIw5YGlA/QHXfs/u9tA0LMshbr23Mdmx5M9tPmO/ECdTIgnJ9ZvESBja37/RzdJiDaiZlDKx2D6v/ncaZ2ZduuzOrYUI7HnowO75pQ1YwoJBJK9VKgcrjNIAmFiUYDKlOshI2kIDJaCihMWXGXVVhLwhFwxPDkZzYZ7pfsrOJPEV4Ixk0WQisUAhYZIE3mSTxWb1R0FJ9L/dnIxJYlp00mM6/kZigrMJ7BVpT46vGmpw68N0UYnClFEzYQdjTZAyptbiiCNXMKtAyTT4oUFo7VP4BNNlka0tLAjrAssyk+YZ6F5ShwkwhS4PECE4eJVh7ep00QkESaWQ6ljggwMPfseYDMAaaZtIeQek8L6K9bbha6aU3XL3p7b6xfFNTpZ6DkHrBxfNjdebulVDNmSDNAuPJ1qlCqB5wcyaZ7GPINlORYapwwRTefDPb+/d12fvrqQcGdTwKcBWqB9LUHg2VUdA35T2BRLNCcmR3GX6lTlIjnkP5KXdDxYPSuhJJ4n2KEk2paJVR314ZMzfd5NVt8nMH0t9yHDsyKFYa1+LzmmFDEX2oVDWTZNCuq9dQGo2qo/iszso1A2WDxasfR3iWJU3s+DibTHG5zT9eHaWKGii73cHmAAcpA5mSFU4e/r4kmQUYLZtbmsPLkGuPuWykphe+QY2iUi3tWzzfMRcLP7mbRypmbLtpc1I1k2WVwTTizoCyaloRxPJRKXZEvQ5TGxkUq8fgWHJoD5svKW8Z5wWpIoKhkJ2LJf+a7y7P5rL3zeBWKhBlMg6R2m+iQjUTOwYNc7wRFKTtuyXLfjRSWeKJJqRkTadvehksuqEnIHyWAEn7U24DKzLByDhSdhJkJpQkQdzw53SH3LUk5VaLdVMpFZX29jmkqU1g+z6rM1PYDgVmwDLm6R9hQN+OUGAdJgZrTwgjUVQfZ7R+vemEqkxly99aamINth2FPSFREfqQwnzdt+940Z60DwztJsnCHMcTLbGlvu4nmMxuNowoF6oN58ldWSdiyND0AJXACwqGgJ/bsBL4kgxmrQj9kwrsbbPboYYtkf2toXTsuDq25Rv8GPT1LP35fsQByxX8EaExHRThryL2SgVNA6R041zYQUQzDLYBmEoqAk67+pvZAUoqHaQa8kewvkPIVgcQq3Yyidf+7L6s/cK5gyKIls5evnx5AEtKZU6hVvnIIhKsgEk5McVTSY3dYKAYm1Vk7YJL+akOtm90Q3v7ebE7mT5PU8d0ttc31A+bxT0f+pEHLFTrXf/eAauyJuioCPRTHrHmwwRA0SdPOh3ouF4NRs8GsoN3t82hmC7ljCgLtB+WteujA9kbullM04Ia9M38Tr2RVMuqLoay5HaqqGiIs1xh3ab8FhGiAEwWm+cyxncsKqMadDvpm3RbvAULFkaFRR3qNWxq3kikh5Vn+mLNp/auvJ+MDOG92zObZPouRf4Nwg2LNN9VQUnqYYHjxmliGPyQhgDO6aOsv06i6h62FD6MQbSSlJ8jyF2HiB07BpWwDfYuljRfuXJlUKo1ax6Na1lyQMu81FjSmxs4o/aF7JDfSn6nsHC08psd3djYRHLGZZEmb86lTvcmNvk0arW7/cpnOpP+Fk8f8J8RB6wCeXkfsB/O+WwgMG/+gmwLxtH16/6WTaKKXy2ruRxtFApBHdb2TkwOB6EkFRpFIShHcO0cwe94Js1J1xl+9913R+jQww//NjY5MHDPlocV55Z5N8OsJQw6dly11gO+UTf6XLhwUYRAWwfMijEzZzZGGHJPo+hgF8CZPKPnjjhgHUC2Uk3/LJkvTS2zqUYzIdvw6vpsIuxBQXewLahVfrJWbFgL9QYjJb4SN0ukxSJrFYg6DV3/JAF+4HdVS1y1alVEWzz2GAGGlCaSiqVa8LmFXeeNtcMOAai9ONonZ1+9/IrsgrkXBXVqQBucPqMh5KvI6D6L2tnVmz4GRhbhJuIVUJLcVmXhsTGwwGlUp0l8RIQMfJ2edIaCMvKQmmEtkQ511bh0YItVgKxTiiWwytCMyTfs+iJ2n99O0OKWLVuIJ3uV3e5fhyp/EJ4EqVAbMlQTslPD9AaSUhqJrm0OAV1Lu4J8TyoV4zBoZl2GB+MSIwpY2pZ2EkJsGIlyh0D7cA+x7mhDkyLYz/EcOKgnQeHPAAAB4UlEQVROGUquUUV05mE0rAK2opmfn58V/rU1q2Dn0k4pVhmbz6HgPW/evNhwyV0h8npZUSqpGGqte8Y6GGb0xFYqLKjSrTygL33t/n/aW+/6f4UhPbK76Ekx3I4D2Ttvbw+Xy3+NbICybPznK9GDGmSQcq5S7UMHANUFy76dXU4SyK6XX8kevPee7DCbNJWLYvUcuhxk+cZLPb/v3/syLKz+3ei0R521wEqQyk2C6RmOoRGa8Jmx89ZLzz0VBsEd296KncDcgaKcrRIqWKDKcgOUpJJQ5voF87Op57UD7kSxhp/ZlPNpy3+ts9aO5bo7ee0Rxz5xcjZ/8aVZNTuk7kXl3vr6xkg7byUKwdj0sjbYTgfsJ69vNZr300hFK5AmJsUqRRfODiZU1lEY9MXOWopV6omUexYtuSxrYx+fHdu2hrw1nr11GptbSwiwpa7Qn88SLapG/R9tCDKmAKyXFHRL4dAdUEyjDkqtyFJg688d/x+PGVHAcgIqMF5Oa2rJpjbOyi4mIyUyiMtNrbhPFcAyU2fz089EiHPn3t3ZYQyznYBboVql8dPW+wiMOGDlj2LCQFXNmJIsqffH7cc3BozzrxIn72RsZAWytp/bZA37zmwStqN9xpXj/P20nX4E/gc6I7Iick3EBwAAAABJRU5ErkJggg==;" parent="4V2U_Qw4gVRa_boo78sr-61" vertex="1">
          <mxGeometry x="21.849999999999994" y="30" width="81.3" height="84" as="geometry" />
        </mxCell>
        <mxCell id="4V2U_Qw4gVRa_boo78sr-55" value="Signal +/-" style="rounded=0;whiteSpace=wrap;html=1;fontFamily=Fira Sans;fontSource=https%3A%2F%2Ffonts.googleapis.com%2Fcss%3Ffamily%3DFira%2BSans;fontSize=9;horizontal=1;fillColor=#fad9d5;strokeColor=#ae4132;rotation=0;" parent="4V2U_Qw4gVRa_boo78sr-61" vertex="1">
          <mxGeometry x="43.75" y="120" width="37.5" height="25" as="geometry" />
        </mxCell>
        <mxCell id="4V2U_Qw4gVRa_boo78sr-63" value="Signal +/-" style="rounded=0;whiteSpace=wrap;html=1;fontFamily=Fira Sans;fontSource=https%3A%2F%2Ffonts.googleapis.com%2Fcss%3Ffamily%3DFira%2BSans;fontSize=9;horizontal=1;fillColor=#fad9d5;strokeColor=#ae4132;rotation=0;" parent="1" vertex="1">
          <mxGeometry x="340" y="20" width="37.5" height="25" as="geometry" />
        </mxCell>
        <mxCell id="4V2U_Qw4gVRa_boo78sr-78" value="" style="group;fontFamily=Fira Sans;fontSource=https%3A%2F%2Ffonts.googleapis.com%2Fcss%3Ffamily%3DFira%2BSans;" parent="1" vertex="1" connectable="0">
          <mxGeometry x="405" y="95" width="120" height="62" as="geometry" />
        </mxCell>
        <mxCell id="4V2U_Qw4gVRa_boo78sr-64" value="D-Klass Endstufe mit DSP-Limiter" style="rounded=0;whiteSpace=wrap;html=1;fontFamily=Fira Sans;fontSource=https%3A%2F%2Ffonts.googleapis.com%2Fcss%3Ffamily%3DFira%2BSans;fontSize=9;horizontal=1;rotation=0;" parent="4V2U_Qw4gVRa_boo78sr-78" vertex="1">
          <mxGeometry x="25" width="95" height="40" as="geometry" />
        </mxCell>
        <mxCell id="4V2U_Qw4gVRa_boo78sr-65" value="D-Klass Endstufe mit DSP-Limiter" style="rounded=0;whiteSpace=wrap;html=1;fontFamily=Fira Sans;fontSource=https%3A%2F%2Ffonts.googleapis.com%2Fcss%3Ffamily%3DFira%2BSans;fontSize=9;horizontal=1;rotation=0;" parent="4V2U_Qw4gVRa_boo78sr-78" vertex="1">
          <mxGeometry x="20" y="4" width="95" height="40" as="geometry" />
        </mxCell>
        <mxCell id="4V2U_Qw4gVRa_boo78sr-66" value="D-Klass Endstufe mit DSP-Limiter" style="rounded=0;whiteSpace=wrap;html=1;fontFamily=Fira Sans;fontSource=https%3A%2F%2Ffonts.googleapis.com%2Fcss%3Ffamily%3DFira%2BSans;fontSize=9;horizontal=1;rotation=0;" parent="4V2U_Qw4gVRa_boo78sr-78" vertex="1">
          <mxGeometry x="15" y="9" width="95" height="40" as="geometry" />
        </mxCell>
        <mxCell id="4V2U_Qw4gVRa_boo78sr-67" value="D-Klass Endstufe mit DSP-Limiter" style="rounded=0;whiteSpace=wrap;html=1;fontFamily=Fira Sans;fontSource=https%3A%2F%2Ffonts.googleapis.com%2Fcss%3Ffamily%3DFira%2BSans;fontSize=9;horizontal=1;rotation=0;" parent="4V2U_Qw4gVRa_boo78sr-78" vertex="1">
          <mxGeometry x="10" y="13" width="95" height="40" as="geometry" />
        </mxCell>
        <mxCell id="4V2U_Qw4gVRa_boo78sr-76" value="D-Klass Endstufe mit DSP-Limiter" style="rounded=0;whiteSpace=wrap;html=1;fontFamily=Fira Sans;fontSource=https%3A%2F%2Ffonts.googleapis.com%2Fcss%3Ffamily%3DFira%2BSans;fontSize=9;horizontal=1;rotation=0;" parent="4V2U_Qw4gVRa_boo78sr-78" vertex="1">
          <mxGeometry x="5" y="18" width="95" height="40" as="geometry" />
        </mxCell>
        <mxCell id="4V2U_Qw4gVRa_boo78sr-77" value="D-Klass Endstufe mit DSP-Limiter" style="rounded=0;whiteSpace=wrap;html=1;fontFamily=Fira Sans Medium;fontSource=https%3A%2F%2Ffonts.googleapis.com%2Fcss%3Ffamily%3DFira%2BSans%2BMedium;fontSize=9;horizontal=1;rotation=0;" parent="4V2U_Qw4gVRa_boo78sr-78" vertex="1">
          <mxGeometry y="22" width="95" height="40" as="geometry" />
        </mxCell>
        <mxCell id="4V2U_Qw4gVRa_boo78sr-79" value="DC-DC Regler??" style="rounded=0;whiteSpace=wrap;html=1;fontFamily=Fira Sans Medium;fontSource=https%3A%2F%2Ffonts.googleapis.com%2Fcss%3Ffamily%3DFira%2BSans%2BMedium;fontSize=11;verticalAlign=top;" parent="1" vertex="1">
          <mxGeometry x="430" y="50" width="95" height="30" as="geometry" />
        </mxCell>
        <mxCell id="4V2U_Qw4gVRa_boo78sr-80" value="Signal +/-" style="rounded=0;whiteSpace=wrap;html=1;fontFamily=Fira Sans;fontSource=https%3A%2F%2Ffonts.googleapis.com%2Fcss%3Ffamily%3DFira%2BSans;fontSize=9;horizontal=1;fillColor=#fad9d5;strokeColor=#ae4132;rotation=0;" parent="1" vertex="1">
          <mxGeometry x="340" y="45" width="37.5" height="25" as="geometry" />
        </mxCell>
        <mxCell id="4V2U_Qw4gVRa_boo78sr-81" value="Signal +/-" style="rounded=0;whiteSpace=wrap;html=1;fontFamily=Fira Sans;fontSource=https%3A%2F%2Ffonts.googleapis.com%2Fcss%3Ffamily%3DFira%2BSans;fontSize=9;horizontal=1;fillColor=#fad9d5;strokeColor=#ae4132;rotation=0;" parent="1" vertex="1">
          <mxGeometry x="340" y="70" width="37.5" height="25" as="geometry" />
        </mxCell>
        <mxCell id="4V2U_Qw4gVRa_boo78sr-82" value="Signal +/-" style="rounded=0;whiteSpace=wrap;html=1;fontFamily=Fira Sans;fontSource=https%3A%2F%2Ffonts.googleapis.com%2Fcss%3Ffamily%3DFira%2BSans;fontSize=9;horizontal=1;fillColor=#fad9d5;strokeColor=#ae4132;rotation=0;" parent="1" vertex="1">
          <mxGeometry x="340" y="95" width="37.5" height="25" as="geometry" />
        </mxCell>
        <mxCell id="4V2U_Qw4gVRa_boo78sr-83" value="Signal +/-" style="rounded=0;whiteSpace=wrap;html=1;fontFamily=Fira Sans;fontSource=https%3A%2F%2Ffonts.googleapis.com%2Fcss%3Ffamily%3DFira%2BSans;fontSize=9;horizontal=1;fillColor=#fad9d5;strokeColor=#ae4132;rotation=0;" parent="1" vertex="1">
          <mxGeometry x="340" y="120" width="37.5" height="25" as="geometry" />
        </mxCell>
        <mxCell id="4V2U_Qw4gVRa_boo78sr-84" value="Signal +/-" style="rounded=0;whiteSpace=wrap;html=1;fontFamily=Fira Sans;fontSource=https%3A%2F%2Ffonts.googleapis.com%2Fcss%3Ffamily%3DFira%2BSans;fontSize=9;horizontal=1;fillColor=#fad9d5;strokeColor=#ae4132;rotation=0;" parent="1" vertex="1">
          <mxGeometry x="340" y="145" width="37.5" height="25" as="geometry" />
        </mxCell>
        <mxCell id="4V2U_Qw4gVRa_boo78sr-85" style="edgeStyle=elbowEdgeStyle;rounded=0;orthogonalLoop=1;jettySize=auto;html=1;entryX=0.5;entryY=1;entryDx=0;entryDy=0;endArrow=none;endFill=0;flowAnimation=0;exitX=0;exitY=0.5;exitDx=0;exitDy=0;dashed=1;dashPattern=8 8;" parent="1" source="4V2U_Qw4gVRa_boo78sr-5" target="4V2U_Qw4gVRa_boo78sr-87" edge="1">
          <mxGeometry relative="1" as="geometry">
            <mxPoint x="520" y="405" as="sourcePoint" />
            <mxPoint x="448" y="245" as="targetPoint" />
            <Array as="points">
              <mxPoint x="368" y="290" />
            </Array>
          </mxGeometry>
        </mxCell>
        <mxCell id="4V2U_Qw4gVRa_boo78sr-86" value="GPIOs?" style="rounded=0;whiteSpace=wrap;html=1;fontFamily=Fira Sans;fontSource=https%3A%2F%2Ffonts.googleapis.com%2Fcss%3Ffamily%3DFira%2BSans;fontSize=9;horizontal=1;fillColor=#fad9d5;strokeColor=#ae4132;rotation=0;" parent="1" vertex="1">
          <mxGeometry x="395" y="186" width="45" height="14" as="geometry" />
        </mxCell>
        <mxCell id="4V2U_Qw4gVRa_boo78sr-87" value="Supplies?" style="rounded=0;whiteSpace=wrap;html=1;fontFamily=Fira Sans;fontSource=https%3A%2F%2Ffonts.googleapis.com%2Fcss%3Ffamily%3DFira%2BSans;fontSize=9;horizontal=1;fillColor=#bac8d3;strokeColor=#23445d;rotation=0;" parent="1" vertex="1">
          <mxGeometry x="345" y="186" width="45" height="14" as="geometry" />
        </mxCell>
        <mxCell id="4V2U_Qw4gVRa_boo78sr-88" value="Master Clock?" style="rounded=0;whiteSpace=wrap;html=1;fontFamily=Fira Sans;fontSource=https%3A%2F%2Ffonts.googleapis.com%2Fcss%3Ffamily%3DFira%2BSans;fontSize=9;horizontal=1;fillColor=#fad9d5;strokeColor=#ae4132;rotation=0;" parent="1" vertex="1">
          <mxGeometry x="530" y="180" width="45" height="20" as="geometry" />
        </mxCell>
        <mxCell id="4V2U_Qw4gVRa_boo78sr-89" value="" style="group" parent="1" vertex="1" connectable="0">
          <mxGeometry x="565" y="320" width="200" height="150" as="geometry" />
        </mxCell>
        <mxCell id="4V2U_Qw4gVRa_boo78sr-1" value="&lt;font style=&quot;font-weight: normal;&quot; data-font-src=&quot;https://fonts.googleapis.com/css?family=Fira+Sans+Medium&quot; face=&quot;Fira Sans Medium&quot;&gt;Milan-Modul&lt;/font&gt;" style="rounded=0;whiteSpace=wrap;html=1;fontFamily=Fira Sans;fontSource=https%3A%2F%2Ffonts.googleapis.com%2Fcss%3Ffamily%3DFira%2BSans;verticalAlign=top;fontSize=14;fontStyle=1" parent="4V2U_Qw4gVRa_boo78sr-89" vertex="1">
          <mxGeometry width="200" height="150" as="geometry" />
        </mxCell>
        <mxCell id="4V2U_Qw4gVRa_boo78sr-11" value="System Connector" style="rounded=0;whiteSpace=wrap;html=1;fillColor=none;dashed=1;verticalAlign=bottom;fontFamily=Fira Sans;fontSource=https%3A%2F%2Ffonts.googleapis.com%2Fcss%3Ffamily%3DFira%2BSans;fontSize=9;spacingTop=-5;horizontal=0;" parent="4V2U_Qw4gVRa_boo78sr-89" vertex="1">
          <mxGeometry y="30" width="75" height="110" as="geometry" />
        </mxCell>
        <mxCell id="4V2U_Qw4gVRa_boo78sr-2" value="" style="shape=image;verticalLabelPosition=bottom;labelBackgroundColor=default;verticalAlign=top;aspect=fixed;imageAspect=0;image=data:image/png,iVBORw0KGgoAAAANSUhEUgAAASUAAABvCAYAAACq09bJAAAIJ0lEQVR4AezdP28cRRjH8Wf2DkMXKXIXURCloCAKPaIwFU18tmx3ICiQTkEoeQWJlCBeQCIEOikdrnCsi5MmVVLRgxIJpEg0EaLAoLjE8u3yPBYrHSh7f3d2Z3a/aIe73O7NPPN5nF/OjuNLtnuDP/4df+otozcox2B98J1M+G+rN7jaWG/2Xtj5Nvd9Z2dwxva/0xs81o/909yx+1u9u5fHwRL9hY1VvT3LkDINlLP4cE7O6Nky1wtpLt1a8cHeS/04i6LvW5cHb8uxDJ3I7UzkomTySO8/1fuXnIwebI/9QWaBVPzRwxkEEEBgSQF7hZQk8o0G0JqOa1kq77vX5QtZkU23Iuc1oHbFyUd5MBFKS4K3/ensH4FpAumxfKJhpIHUWU+T9LFL5IfsWF7q+DX7W76+96D/cR5Mm5vfvkMoTRPlPAIILCWgIbOhExzuH3z2MElfe0vvn82ks65BddNeIVkQnb5y0hOdLNnU6/UeBwIIIOBBwD510/C5pK+EHv13+pGF0+lDFlR7e/0j/cWhy2SNUFIJDgQQqFZAv8h924ZksmuvoMZXJ5TGNbiPAAKlCtgrIA2fn/TTtA/HJx4l6UV9/Ilzcs4et0/h9HY1c/KEUFIJDgQQ8CeQitwXkdXtjcF1SUfP9VO53W43eZGm8nmWyW8WSN00uaPXSDaSvcTuMBBAAAFfAvsH/Tv2qkjD6JbryI59UdteQe0/7P+iofSVBZJ+3WlNX03dsMcIJV+daOK87AmBRQVWZFNDaVfHrexYXubf0e0S+TkPpHv3+1/a9ISSKTAQQMCrgL0ysu9HyqSzrsG0q6+cntoQJzfs60t5IFkRhJIpMBBAoBIB+5s2C6e9g/4HNiyMhsMrz8YXJ5TGNbiPAAIeBWabmlCazYmrEECgIgFCqSJolkEAgdkECKXZnLgKAQQqEiCUKoKObxkqRqAeAUKpHndWRQCBAgHfoXToRJ4UDa3pUIe3o2jd/HFvC88wcZZ1fszrqON2hhKjvWSaZ7Qbm6HwJuzdbyhl8si+F6FoiJPTf+8yg/VCl9i/rSlce0U2dVKvoajzFx72/RpFtfl+3H7inxZW2951ba9HyH33unGdPKC9azWLHX5DabGaeBYCCCwokHbT7oJPDeZphFIwraCQsgSa8BuzLIsY5yGUYuwaNSPQYAFCqcHNnWNrXIpAMAKEUjCtoBAEEDABQskUGAggEIwAoVRTK+xHgNpbGPsa9i4SNW2NZVsoUOaWCaUyNeeYy97fyomcvqODj9uTk/TNOcrhUgSCESCUgmlFuYUkJ8lJuTMyGwLVCBBK1TizCgIIzChAKM0I1aTL2AsCIQsQSiF3h9oQaKEAodTCprNlBEIWIJRC7g61IRCigOeaCCXPwEyPAALzCRBK83lxNQIIeBYglDwDMz0CCMwnQCjN5xXf1VSMQGQChFJkDWtCuSOXDjORa75Gt5u8aIJTW/dAKLW18zXuezi88mz/oH/H19jb6x/VuD2WXlKAUFoSkKcj0GyB6ndHKFVvzooIIDBBgFCagMMpBBCoXoBQqt6cFRFAYIIAoTQBJ75TVIxA/AKEUvw9ZAdzCPA3c3Ng1XQpoVQTfJuX3erdvbzTGzyua6j9qg6OQAUIpUAb0+SynBu9m4ms1TWabLvk3oJ4OqEURBsoAgEEcgFCKZfgFgEEghAglIJoA0UggEAuQCjlEvHdUjECjRQglBrZVjaFQLwChFK8vaNyBBopQCg1sq1sCoHpAqFeQSiF2hnqQqClAoRSSxvPthEIVYBQCrUz1IVASwUIpUgaT5kItEWAUGpLp9knApEIEEqRNIoyEWiLAKHUlk6zz3YLRLR7QimiZlEqAm0QIJTa0GX2iEBEAoRSRM2iVATaIEAohdhlalpW4C+d4FCH3Y6P/DE9xRGqAKEUameoa2GBTDqfuhW5oOP8/8aFLJX3dGILKr3hCFGAUAqxK9S0nEA6em7vWvKqkbwhv+vkqQ6OQAUIpUAbQ1mLC6TdtLv4s5vwzLj3QCjF3T+qR6BxAoRS41rKhhCIW4BQirt/VI9A4wQIpdpbSgEIIDAuQCiNa3AfAQRqFyCUam8BBSCAwLgAoTSuwX0E4hNoXMWEUuNayoYQiFuAUIq7f1SPQOMECKXGtZQNIRC3AKFUbf9YDQEEpggQSlOAOI0AAtUKEErVerMaAghMESCUpgBxGoGQBNpQC6HUhi6zRwQiEiCUImoWpSLQBgFCqQ1dZo8IRCRAKHlsFlMjgMD8AoTS/GY8AwEEPAoQSh5xJ02dZXI06XyTz/nee3KSnBT52ZsJFJ3j8TAECCVPfXBOzm31BleLhsJveFq69mnr3rvryE6R+/bG4LoCKb/+P/SjpfXRHE+Nz0TWnMjtomHnPS1d+7S2t6J92+N23muRmdyydV41RM/p2md1cAQqQCgF2hjKQqCtAoRSWzvPvhEIVIBQKqsxzIMAAqUIEEqlMDIJAgiUJUAolSXJPAggUIoAoVQKI5MgsKwAz88FCKVcglsEEAhCgFAKog0UgQACuQChlEtwiwACQQgQSgu1gSchgIAvAULJlyzzIoDAQgKE0kJsPAkBBHwJEEq+ZJkXgWIBzkwQIJQm4HAKAQSqFyCUqjdnRQQQmCBAKE3A4RQCCFQvQChNN+cKBBCoUMBCqbE/hS/tpt0plqtTzkd7eoa9W++j3R+FLywQfN+TTOSat+E630+iG7l06G1t3Ve3m7woWt9+gLzPteuee9LezUTru6nDX+/Vv5Xzh/8x76/vU/ZuH3ezjH8AAAD//1LPxG8AAAAGSURBVAMAz25wvUDqxdMAAAAASUVORK5CYII=;" parent="4V2U_Qw4gVRa_boo78sr-89" vertex="1">
          <mxGeometry x="85" y="63" width="76.55" height="29" as="geometry" />
        </mxCell>
        <mxCell id="4V2U_Qw4gVRa_boo78sr-3" value="RJ45" style="rounded=0;whiteSpace=wrap;html=1;fontFamily=Fira Sans;fontSource=https%3A%2F%2Ffonts.googleapis.com%2Fcss%3Ffamily%3DFira%2BSans;fontSize=9;horizontal=1;fillColor=#d0cee2;strokeColor=#56517e;" parent="4V2U_Qw4gVRa_boo78sr-89" vertex="1">
          <mxGeometry x="175" y="70" width="25" height="15" as="geometry" />
        </mxCell>
        <mxCell id="4V2U_Qw4gVRa_boo78sr-4" value="Master Clock" style="rounded=0;whiteSpace=wrap;html=1;fontFamily=Fira Sans;fontSource=https%3A%2F%2Ffonts.googleapis.com%2Fcss%3Ffamily%3DFira%2BSans;fontSize=9;horizontal=1;fillColor=#fad9d5;strokeColor=#ae4132;rotation=0;" parent="4V2U_Qw4gVRa_boo78sr-89" vertex="1">
          <mxGeometry y="35" width="60" height="15" as="geometry" />
        </mxCell>
        <mxCell id="4V2U_Qw4gVRa_boo78sr-5" value="5V and 3.3V" style="rounded=0;whiteSpace=wrap;html=1;fontFamily=Fira Sans;fontSource=https%3A%2F%2Ffonts.googleapis.com%2Fcss%3Ffamily%3DFira%2BSans;fontSize=9;horizontal=1;fillColor=#bac8d3;strokeColor=#23445d;rotation=0;" parent="4V2U_Qw4gVRa_boo78sr-89" vertex="1">
          <mxGeometry y="120" width="50" height="14" as="geometry" />
        </mxCell>
        <mxCell id="4V2U_Qw4gVRa_boo78sr-6" value="PoE" style="rounded=0;whiteSpace=wrap;html=1;fontFamily=Fira Sans;fontSource=https%3A%2F%2Ffonts.googleapis.com%2Fcss%3Ffamily%3DFira%2BSans;fontSize=9;horizontal=0;fillColor=#fad9d5;strokeColor=#ae4132;rotation=90;" parent="4V2U_Qw4gVRa_boo78sr-89" vertex="1">
          <mxGeometry x="143.25" y="93.25" width="30" height="61.5" as="geometry" />
        </mxCell>
        <mxCell id="4V2U_Qw4gVRa_boo78sr-8" value="Serial Audio Interface" style="rounded=0;whiteSpace=wrap;html=1;fontFamily=Fira Sans;fontSource=https%3A%2F%2Ffonts.googleapis.com%2Fcss%3Ffamily%3DFira%2BSans;fontSize=9;horizontal=1;fillColor=#b1ddf0;strokeColor=#10739e;rotation=0;" parent="4V2U_Qw4gVRa_boo78sr-89" vertex="1">
          <mxGeometry y="55" width="60" height="25" as="geometry" />
        </mxCell>
        <mxCell id="4V2U_Qw4gVRa_boo78sr-9" value="I2C" style="rounded=0;whiteSpace=wrap;html=1;fontFamily=Fira Sans;fontSource=https%3A%2F%2Ffonts.googleapis.com%2Fcss%3Ffamily%3DFira%2BSans;fontSize=9;horizontal=1;fillColor=#fad7ac;strokeColor=#b46504;rotation=0;" parent="4V2U_Qw4gVRa_boo78sr-89" vertex="1">
          <mxGeometry y="84" width="40" height="12.5" as="geometry" />
        </mxCell>
        <mxCell id="4V2U_Qw4gVRa_boo78sr-10" value="GPIOs" style="rounded=0;whiteSpace=wrap;html=1;fontFamily=Fira Sans;fontSource=https%3A%2F%2Ffonts.googleapis.com%2Fcss%3Ffamily%3DFira%2BSans;fontSize=9;horizontal=1;fillColor=#fad9d5;strokeColor=#ae4132;rotation=0;" parent="4V2U_Qw4gVRa_boo78sr-89" vertex="1">
          <mxGeometry y="101.25" width="40" height="12.5" as="geometry" />
        </mxCell>
        <mxCell id="4V2U_Qw4gVRa_boo78sr-90" style="edgeStyle=elbowEdgeStyle;rounded=0;orthogonalLoop=1;jettySize=auto;html=1;entryX=0.5;entryY=1;entryDx=0;entryDy=0;endArrow=none;endFill=0;flowAnimation=0;exitX=0;exitY=0.5;exitDx=0;exitDy=0;dashed=1;dashPattern=8 8;" parent="1" source="4V2U_Qw4gVRa_boo78sr-10" target="4V2U_Qw4gVRa_boo78sr-86" edge="1">
          <mxGeometry relative="1" as="geometry">
            <mxPoint x="593.5" y="422" as="sourcePoint" />
            <mxPoint x="411.5" y="220" as="targetPoint" />
            <Array as="points">
              <mxPoint x="418" y="310" />
            </Array>
          </mxGeometry>
        </mxCell>
        <mxCell id="4V2U_Qw4gVRa_boo78sr-91" style="edgeStyle=elbowEdgeStyle;rounded=0;orthogonalLoop=1;jettySize=auto;html=1;entryX=0.5;entryY=1;entryDx=0;entryDy=0;endArrow=none;endFill=0;flowAnimation=0;exitX=0;exitY=0.5;exitDx=0;exitDy=0;" parent="1" source="4V2U_Qw4gVRa_boo78sr-9" target="4V2U_Qw4gVRa_boo78sr-50" edge="1">
          <mxGeometry relative="1" as="geometry">
            <mxPoint x="607" y="503" as="sourcePoint" />
            <mxPoint x="475" y="320" as="targetPoint" />
            <Array as="points">
              <mxPoint x="460" y="360" />
            </Array>
          </mxGeometry>
        </mxCell>
        <mxCell id="4V2U_Qw4gVRa_boo78sr-92" style="edgeStyle=elbowEdgeStyle;rounded=0;orthogonalLoop=1;jettySize=auto;html=1;entryX=0.5;entryY=1;entryDx=0;entryDy=0;endArrow=none;endFill=0;flowAnimation=0;exitX=0;exitY=0.5;exitDx=0;exitDy=0;" parent="1" source="4V2U_Qw4gVRa_boo78sr-8" target="4V2U_Qw4gVRa_boo78sr-51" edge="1">
          <mxGeometry relative="1" as="geometry">
            <mxPoint x="560" y="490" as="sourcePoint" />
            <mxPoint x="470" y="325" as="targetPoint" />
            <Array as="points">
              <mxPoint x="503" y="270" />
            </Array>
          </mxGeometry>
        </mxCell>
        <mxCell id="4V2U_Qw4gVRa_boo78sr-93" style="edgeStyle=elbowEdgeStyle;rounded=0;orthogonalLoop=1;jettySize=auto;html=1;entryX=0.5;entryY=1;entryDx=0;entryDy=0;endArrow=none;endFill=0;flowAnimation=0;exitX=0;exitY=0.5;exitDx=0;exitDy=0;dashed=1;dashPattern=8 8;" parent="1" source="4V2U_Qw4gVRa_boo78sr-4" target="4V2U_Qw4gVRa_boo78sr-88" edge="1">
          <mxGeometry relative="1" as="geometry">
            <mxPoint x="592" y="428" as="sourcePoint" />
            <mxPoint x="520" y="285" as="targetPoint" />
            <Array as="points">
              <mxPoint x="553" y="260" />
            </Array>
          </mxGeometry>
        </mxCell>
        <mxCell id="4V2U_Qw4gVRa_boo78sr-94" style="edgeStyle=orthogonalEdgeStyle;rounded=0;orthogonalLoop=1;jettySize=auto;html=1;entryX=0.5;entryY=1;entryDx=0;entryDy=0;endArrow=none;endFill=0;flowAnimation=0;exitX=0;exitY=0.5;exitDx=0;exitDy=0;" parent="1" source="4V2U_Qw4gVRa_boo78sr-63" target="4V2U_Qw4gVRa_boo78sr-55" edge="1">
          <mxGeometry relative="1" as="geometry">
            <mxPoint x="285" y="425" as="sourcePoint" />
            <mxPoint x="170" y="260" as="targetPoint" />
            <Array as="points">
              <mxPoint x="195" y="32" />
              <mxPoint x="195" y="260" />
              <mxPoint x="32" y="260" />
            </Array>
          </mxGeometry>
        </mxCell>
        <mxCell id="4V2U_Qw4gVRa_boo78sr-95" style="edgeStyle=orthogonalEdgeStyle;rounded=0;orthogonalLoop=1;jettySize=auto;html=1;entryX=0.5;entryY=1;entryDx=0;entryDy=0;endArrow=none;endFill=0;flowAnimation=0;exitX=0;exitY=0.5;exitDx=0;exitDy=0;" parent="1" source="4V2U_Qw4gVRa_boo78sr-80" target="4V2U_Qw4gVRa_boo78sr-55" edge="1">
          <mxGeometry relative="1" as="geometry">
            <mxPoint x="527" y="165" as="sourcePoint" />
            <mxPoint x="220" y="345" as="targetPoint" />
            <Array as="points">
              <mxPoint x="295" y="58" />
              <mxPoint x="195" y="58" />
              <mxPoint x="195" y="260" />
              <mxPoint x="32" y="260" />
            </Array>
          </mxGeometry>
        </mxCell>
        <mxCell id="4V2U_Qw4gVRa_boo78sr-96" style="edgeStyle=orthogonalEdgeStyle;rounded=0;orthogonalLoop=1;jettySize=auto;html=1;entryX=0.5;entryY=1;entryDx=0;entryDy=0;endArrow=none;endFill=0;flowAnimation=0;exitX=0;exitY=0.5;exitDx=0;exitDy=0;" parent="1" source="4V2U_Qw4gVRa_boo78sr-81" target="4V2U_Qw4gVRa_boo78sr-55" edge="1">
          <mxGeometry relative="1" as="geometry">
            <mxPoint x="322" y="133.98" as="sourcePoint" />
            <mxPoint x="15" y="288.98" as="targetPoint" />
            <Array as="points">
              <mxPoint x="195" y="83" />
              <mxPoint x="195" y="260" />
              <mxPoint x="33" y="260" />
              <mxPoint x="33" y="213" />
            </Array>
          </mxGeometry>
        </mxCell>
        <mxCell id="4V2U_Qw4gVRa_boo78sr-97" style="edgeStyle=orthogonalEdgeStyle;rounded=0;orthogonalLoop=1;jettySize=auto;html=1;entryX=0.5;entryY=1;entryDx=0;entryDy=0;endArrow=none;endFill=0;flowAnimation=0;exitX=0;exitY=0.5;exitDx=0;exitDy=0;" parent="1" source="4V2U_Qw4gVRa_boo78sr-82" target="4V2U_Qw4gVRa_boo78sr-55" edge="1">
          <mxGeometry relative="1" as="geometry">
            <mxPoint x="337.5" y="135" as="sourcePoint" />
            <mxPoint x="30" y="240" as="targetPoint" />
            <Array as="points">
              <mxPoint x="195" y="108" />
              <mxPoint x="195" y="260" />
              <mxPoint x="33" y="260" />
              <mxPoint x="33" y="212" />
            </Array>
          </mxGeometry>
        </mxCell>
        <mxCell id="4V2U_Qw4gVRa_boo78sr-98" style="edgeStyle=orthogonalEdgeStyle;rounded=0;orthogonalLoop=1;jettySize=auto;html=1;entryX=0.5;entryY=1;entryDx=0;entryDy=0;endArrow=none;endFill=0;flowAnimation=0;exitX=0;exitY=0.5;exitDx=0;exitDy=0;" parent="1" source="4V2U_Qw4gVRa_boo78sr-83" target="4V2U_Qw4gVRa_boo78sr-55" edge="1">
          <mxGeometry relative="1" as="geometry">
            <mxPoint x="347" y="140" as="sourcePoint" />
            <mxPoint x="40" y="245" as="targetPoint" />
            <Array as="points">
              <mxPoint x="195" y="132" />
              <mxPoint x="195" y="260" />
              <mxPoint x="33" y="260" />
              <mxPoint x="33" y="212" />
            </Array>
          </mxGeometry>
        </mxCell>
        <mxCell id="4V2U_Qw4gVRa_boo78sr-99" style="edgeStyle=orthogonalEdgeStyle;rounded=0;orthogonalLoop=1;jettySize=auto;html=1;entryX=0.5;entryY=1;entryDx=0;entryDy=0;endArrow=none;endFill=0;flowAnimation=0;exitX=0;exitY=0.5;exitDx=0;exitDy=0;" parent="1" source="4V2U_Qw4gVRa_boo78sr-84" target="4V2U_Qw4gVRa_boo78sr-55" edge="1">
          <mxGeometry relative="1" as="geometry">
            <mxPoint x="307" y="186" as="sourcePoint" />
            <mxPoint y="266" as="targetPoint" />
            <Array as="points">
              <mxPoint x="195" y="158" />
              <mxPoint x="195" y="260" />
              <mxPoint x="33" y="260" />
              <mxPoint x="33" y="212" />
            </Array>
          </mxGeometry>
        </mxCell>
        <mxCell id="4V2U_Qw4gVRa_boo78sr-100" style="edgeStyle=elbowEdgeStyle;rounded=0;orthogonalLoop=1;jettySize=auto;html=1;entryX=0;entryY=0.5;entryDx=0;entryDy=0;endArrow=none;endFill=0;flowAnimation=0;exitX=1;exitY=0.5;exitDx=0;exitDy=0;" parent="1" source="4V2U_Qw4gVRa_boo78sr-48" target="4V2U_Qw4gVRa_boo78sr-15" edge="1">
          <mxGeometry relative="1" as="geometry">
            <mxPoint x="665" y="145" as="sourcePoint" />
            <mxPoint x="723" y="57" as="targetPoint" />
            <Array as="points">
              <mxPoint x="655" y="25" />
            </Array>
          </mxGeometry>
        </mxCell>
      </root>
    </mxGraphModel>
  </diagram>
</mxfile>
